G75*
G70*
%OFA0B0*%
%FSLAX24Y24*%
%IPPOS*%
%LPD*%
%AMOC8*
5,1,8,0,0,1.08239X$1,22.5*
%
%ADD10C,0.1580*%
%ADD11R,0.0320X0.0950*%
%ADD12C,0.0600*%
%ADD13R,0.0789X0.0710*%
%ADD14C,0.0477*%
%ADD15C,0.1346*%
%ADD16R,0.0710X0.0789*%
%ADD17C,0.0820*%
%ADD18R,0.0560X0.0960*%
%ADD19R,0.1497X0.0946*%
%ADD20C,0.0820*%
%ADD21C,0.0730*%
%ADD22R,0.0730X0.0730*%
%ADD23OC8,0.0600*%
%ADD24C,0.0476*%
D10*
X018650Y006600D03*
X018650Y018600D03*
D11*
X005745Y011423D03*
X005245Y011423D03*
X004745Y011423D03*
X004245Y011423D03*
X004245Y009363D03*
X004745Y009363D03*
X005245Y009363D03*
X005745Y009363D03*
X005616Y013839D03*
X005116Y013839D03*
X004616Y013839D03*
X004116Y013839D03*
X004116Y015899D03*
X004616Y015899D03*
X005116Y015899D03*
X005616Y015899D03*
D12*
X009595Y014051D02*
X010115Y014051D01*
X010115Y013051D02*
X009595Y013051D01*
X009595Y012051D02*
X010115Y012051D01*
X010115Y011051D02*
X009595Y011051D01*
X012595Y011051D02*
X013115Y011051D01*
X013115Y012051D02*
X012595Y012051D01*
X012595Y013051D02*
X013115Y013051D01*
X013115Y014051D02*
X012595Y014051D01*
D13*
X004002Y006619D03*
X004002Y007721D03*
X003478Y009783D03*
X003478Y010886D03*
X006480Y011348D03*
X007379Y011324D03*
X008291Y011294D03*
X008291Y010192D03*
X007379Y010222D03*
X006480Y010246D03*
X006295Y014145D03*
X006295Y015248D03*
X003421Y014955D03*
X002471Y014985D03*
X001463Y015035D03*
X001463Y013933D03*
X002471Y013883D03*
X003421Y013852D03*
X003912Y017540D03*
X003912Y018642D03*
D14*
X004720Y018008D02*
X005117Y018008D01*
X005117Y017508D02*
X004720Y017508D01*
X004720Y017008D02*
X005117Y017008D01*
X005166Y008204D02*
X004769Y008204D01*
X004769Y007704D02*
X005166Y007704D01*
X005166Y007204D02*
X004769Y007204D01*
D15*
X002218Y008204D03*
X007718Y008204D03*
X007668Y017008D03*
X002168Y017008D03*
D16*
X002377Y015864D03*
X003479Y015864D03*
X006419Y009329D03*
X007522Y009329D03*
X015389Y015276D03*
X016491Y015276D03*
X016547Y013502D03*
X017649Y013502D03*
D17*
X016613Y007845D02*
X016613Y007105D01*
X015613Y007105D02*
X015613Y007845D01*
X014613Y007845D02*
X014613Y007105D01*
X013613Y007105D02*
X013613Y007845D01*
X012613Y007845D02*
X012613Y007105D01*
X011613Y007105D02*
X011613Y007845D01*
D18*
X013637Y016311D03*
X014547Y016311D03*
X015457Y016311D03*
D19*
X014547Y018751D03*
D20*
X017462Y016337D03*
X016462Y014337D03*
X018462Y014337D03*
D21*
X017228Y009653D03*
X010804Y017376D03*
D22*
X010804Y018376D03*
X017228Y011653D03*
D23*
X011550Y009300D03*
X010550Y009300D03*
X011600Y015750D03*
X012600Y015750D03*
X013050Y017650D03*
X013050Y018650D03*
D24*
X004950Y017500D03*
X003050Y013000D03*
X006750Y012400D03*
M02*
