G75*
G70*
%OFA0B0*%
%FSLAX24Y24*%
%IPPOS*%
%LPD*%
%AMOC8*
5,1,8,0,0,1.08239X$1,22.5*
%
%ADD10R,0.0240X0.0870*%
%ADD11C,0.0520*%
%ADD12R,0.0709X0.0630*%
%ADD13C,0.0397*%
%ADD14C,0.1266*%
%ADD15R,0.0630X0.0709*%
%ADD16C,0.0740*%
%ADD17R,0.0480X0.0880*%
%ADD18R,0.1417X0.0866*%
%ADD19C,0.0740*%
%ADD20C,0.0650*%
%ADD21R,0.0650X0.0650*%
%ADD22OC8,0.0520*%
%ADD23C,0.0240*%
%ADD24C,0.0396*%
%ADD25C,0.0400*%
%ADD26C,0.0100*%
D10*
X004245Y009363D03*
X004745Y009363D03*
X005245Y009363D03*
X005745Y009363D03*
X005745Y011423D03*
X005245Y011423D03*
X004745Y011423D03*
X004245Y011423D03*
X004116Y013839D03*
X004616Y013839D03*
X005116Y013839D03*
X005616Y013839D03*
X005616Y015899D03*
X005116Y015899D03*
X004616Y015899D03*
X004116Y015899D03*
D11*
X009595Y014051D02*
X010115Y014051D01*
X010115Y013051D02*
X009595Y013051D01*
X009595Y012051D02*
X010115Y012051D01*
X010115Y011051D02*
X009595Y011051D01*
X012595Y011051D02*
X013115Y011051D01*
X013115Y012051D02*
X012595Y012051D01*
X012595Y013051D02*
X013115Y013051D01*
X013115Y014051D02*
X012595Y014051D01*
D12*
X008291Y011294D03*
X007379Y011324D03*
X006480Y011348D03*
X006480Y010246D03*
X007379Y010222D03*
X008291Y010192D03*
X004002Y007721D03*
X004002Y006619D03*
X003478Y009783D03*
X003478Y010886D03*
X003421Y013852D03*
X002471Y013883D03*
X001463Y013933D03*
X001463Y015035D03*
X002471Y014985D03*
X003421Y014955D03*
X006295Y015248D03*
X006295Y014145D03*
X003912Y017540D03*
X003912Y018642D03*
D13*
X004720Y018008D02*
X005117Y018008D01*
X005117Y017508D02*
X004720Y017508D01*
X004720Y017008D02*
X005117Y017008D01*
X005166Y008204D02*
X004769Y008204D01*
X004769Y007704D02*
X005166Y007704D01*
X005166Y007204D02*
X004769Y007204D01*
D14*
X002218Y008204D03*
X007718Y008204D03*
X007668Y017008D03*
X002168Y017008D03*
D15*
X002377Y015864D03*
X003479Y015864D03*
X006419Y009329D03*
X007522Y009329D03*
X015389Y015276D03*
X016491Y015276D03*
X016547Y013502D03*
X017649Y013502D03*
D16*
X016613Y007845D02*
X016613Y007105D01*
X015613Y007105D02*
X015613Y007845D01*
X014613Y007845D02*
X014613Y007105D01*
X013613Y007105D02*
X013613Y007845D01*
X012613Y007845D02*
X012613Y007105D01*
X011613Y007105D02*
X011613Y007845D01*
D17*
X013637Y016311D03*
X014547Y016311D03*
X015457Y016311D03*
D18*
X014547Y018751D03*
D19*
X017462Y016337D03*
X016462Y014337D03*
X018462Y014337D03*
D20*
X017228Y009653D03*
X010804Y017376D03*
D21*
X010804Y018376D03*
X017228Y011653D03*
D22*
X011550Y009300D03*
X010550Y009300D03*
X011600Y015750D03*
X012600Y015750D03*
X013050Y017650D03*
X013050Y018650D03*
D23*
X006750Y016800D02*
X006750Y016000D01*
X006950Y015800D01*
X006950Y014600D01*
X006495Y014145D01*
X006295Y014145D01*
X006205Y014145D01*
X005750Y014600D01*
X004250Y014600D01*
X004116Y014466D01*
X004116Y013839D01*
X004616Y013839D02*
X004616Y013266D01*
X004450Y013100D01*
X003650Y013100D01*
X003500Y013250D01*
X003250Y013000D01*
X003050Y013000D01*
X003450Y013300D02*
X003450Y013823D01*
X003421Y013852D01*
X003450Y013300D02*
X003500Y013250D01*
X003850Y012700D02*
X003550Y012400D01*
X002950Y012400D01*
X002450Y012900D01*
X002450Y013862D01*
X002471Y013883D01*
X002421Y013933D01*
X001463Y013933D01*
X001463Y015035D02*
X001463Y016087D01*
X001050Y016500D01*
X001050Y017500D01*
X001550Y018000D01*
X003050Y018000D01*
X003450Y017600D01*
X003852Y017600D01*
X003912Y017540D01*
X004918Y017508D02*
X004926Y017500D01*
X004950Y017500D01*
X005550Y017500D01*
X006295Y016755D01*
X006295Y015248D01*
X006267Y015248D01*
X005616Y015899D01*
X005116Y015899D02*
X005116Y016810D01*
X004918Y017008D01*
X004616Y015899D02*
X004116Y015899D01*
X003514Y015899D01*
X003479Y015864D01*
X002377Y015864D02*
X002377Y015080D01*
X002471Y014985D01*
X003390Y014985D01*
X003421Y014955D01*
X004616Y013839D02*
X005116Y013839D01*
X005616Y013839D02*
X005616Y013166D01*
X005450Y013000D01*
X004950Y013000D01*
X004650Y012700D01*
X003850Y012700D01*
X004350Y012200D02*
X004250Y012100D01*
X004250Y011428D01*
X004245Y011423D01*
X004745Y011423D02*
X005245Y011423D01*
X005250Y011428D01*
X005250Y012000D01*
X005350Y012100D01*
X006350Y012100D01*
X006480Y011970D01*
X006750Y012241D01*
X006750Y012400D01*
X006550Y012800D02*
X006250Y012500D01*
X005150Y012500D01*
X004850Y012200D01*
X004350Y012200D01*
X003864Y010886D02*
X003478Y010886D01*
X003392Y010800D01*
X002950Y010800D01*
X002650Y010500D01*
X002650Y009300D01*
X003250Y008700D01*
X003250Y006900D01*
X003531Y006619D01*
X004002Y006619D01*
X004383Y006619D01*
X004968Y007204D01*
X004968Y007704D02*
X004950Y007721D01*
X004002Y007721D01*
X004002Y009120D01*
X004245Y009363D01*
X003824Y009783D01*
X003478Y009783D01*
X004745Y009363D02*
X004745Y008426D01*
X004968Y008204D01*
X005245Y009363D02*
X005745Y009363D01*
X006386Y009363D01*
X006419Y009329D01*
X007522Y009329D02*
X007522Y010080D01*
X007379Y010222D01*
X007356Y010246D01*
X006480Y010246D01*
X005750Y010800D02*
X005650Y010700D01*
X004050Y010700D01*
X003864Y010886D01*
X005750Y010800D02*
X005750Y011417D01*
X005745Y011423D01*
X006480Y011348D02*
X006480Y011970D01*
X006950Y012800D02*
X007379Y012371D01*
X007379Y011324D01*
X007409Y011294D01*
X008291Y011294D01*
X006950Y012800D02*
X006550Y012800D01*
X009855Y014051D02*
X009906Y014000D01*
X010750Y014000D01*
X011250Y013500D01*
X013650Y013500D01*
X006750Y016800D02*
X005550Y018000D01*
X004926Y018000D01*
X004918Y018008D01*
D24*
X004950Y017500D03*
X003050Y013000D03*
X006750Y012400D03*
D25*
X008291Y010192D02*
X009658Y010192D01*
X010550Y009300D01*
X008350Y007100D01*
X006850Y007100D01*
X006246Y007704D01*
X004968Y007704D01*
X010550Y006800D02*
X011150Y006200D01*
X016850Y006200D01*
X017450Y006800D01*
X017450Y009431D01*
X017228Y009653D01*
X017453Y009653D01*
X018150Y010350D01*
X018150Y013001D01*
X017649Y013502D01*
X016547Y013502D02*
X016547Y014253D01*
X016462Y014337D01*
X015650Y014100D02*
X015400Y014350D01*
X014900Y014350D01*
X013650Y015600D01*
X013650Y016324D01*
X013637Y016311D01*
X013650Y016324D02*
X013650Y016600D01*
X014547Y016311D02*
X014547Y018751D01*
X013151Y018751D01*
X013050Y018650D01*
X012350Y017650D02*
X011650Y018350D01*
X010830Y018350D01*
X010804Y018376D01*
X010804Y018446D01*
X010400Y018850D01*
X005760Y018850D01*
X004918Y018008D01*
X004284Y018642D01*
X003912Y018642D01*
X003912Y017540D02*
X003943Y017508D01*
X004918Y017508D01*
X011650Y016350D02*
X011650Y015800D01*
X011600Y015750D01*
X012600Y015750D02*
X012855Y015495D01*
X012855Y014051D01*
X013650Y013500D02*
X013950Y013200D01*
X013950Y010400D01*
X013613Y010063D01*
X013613Y007475D01*
X011613Y007475D02*
X011613Y009237D01*
X011550Y009300D01*
X010550Y009300D02*
X010550Y006800D01*
X016250Y009400D02*
X016250Y010676D01*
X017228Y011653D01*
X017228Y012272D01*
X016900Y012600D01*
X016150Y012600D01*
X015650Y013100D01*
X015650Y014100D01*
X015389Y015276D02*
X015457Y015344D01*
X015457Y016311D01*
X016491Y015367D02*
X017462Y016337D01*
X018462Y015337D01*
X018462Y014337D01*
X016491Y015276D02*
X016491Y015367D01*
X013050Y017650D02*
X012950Y017650D01*
X011650Y016350D01*
X012350Y017650D02*
X013050Y017650D01*
X016250Y009400D02*
X016613Y009037D01*
X016613Y007475D01*
D26*
X017982Y005600D02*
X000150Y005600D01*
X000150Y019335D01*
X000240Y019335D01*
X000405Y019404D01*
X000531Y019530D01*
X000560Y019600D01*
X017982Y019600D01*
X017913Y019560D01*
X017690Y019337D01*
X017532Y019063D01*
X017450Y018758D01*
X017450Y018442D01*
X017532Y018137D01*
X017690Y017863D01*
X017913Y017640D01*
X018187Y017482D01*
X018492Y017400D01*
X018808Y017400D01*
X019113Y017482D01*
X019387Y017640D01*
X019610Y017863D01*
X019650Y017932D01*
X019650Y007268D01*
X019610Y007337D01*
X019387Y007560D01*
X019113Y007718D01*
X018808Y007800D01*
X018492Y007800D01*
X018187Y007718D01*
X017913Y007560D01*
X017690Y007337D01*
X017532Y007063D01*
X017450Y006758D01*
X017450Y006442D01*
X017532Y006137D01*
X017690Y005863D01*
X017913Y005640D01*
X017982Y005600D01*
X017954Y005616D02*
X000150Y005616D01*
X000150Y005715D02*
X017838Y005715D01*
X017740Y005813D02*
X000150Y005813D01*
X000150Y005912D02*
X017662Y005912D01*
X017605Y006010D02*
X000150Y006010D01*
X000150Y006109D02*
X017548Y006109D01*
X017513Y006207D02*
X004444Y006207D01*
X004411Y006174D02*
X004487Y006250D01*
X004487Y006391D01*
X004524Y006407D01*
X004993Y006875D01*
X005231Y006875D01*
X005352Y006925D01*
X005445Y007018D01*
X005495Y007138D01*
X005495Y007269D01*
X005445Y007390D01*
X005395Y007439D01*
X005437Y007481D01*
X005475Y007539D01*
X005501Y007602D01*
X005515Y007669D01*
X005515Y007704D01*
X005515Y007738D01*
X005501Y007805D01*
X005475Y007869D01*
X005437Y007926D01*
X005395Y007968D01*
X005445Y008018D01*
X005495Y008138D01*
X005495Y008269D01*
X005445Y008390D01*
X005352Y008482D01*
X005231Y008532D01*
X004995Y008532D01*
X004995Y009851D01*
X004919Y009928D01*
X004571Y009928D01*
X004503Y009859D01*
X004485Y009890D01*
X004457Y009918D01*
X004423Y009937D01*
X004385Y009948D01*
X004255Y009948D01*
X004255Y009373D01*
X004235Y009373D01*
X004235Y009948D01*
X004105Y009948D01*
X004067Y009937D01*
X004033Y009918D01*
X004005Y009890D01*
X003985Y009855D01*
X003982Y009843D01*
X003982Y010118D01*
X003972Y010156D01*
X003952Y010191D01*
X003924Y010218D01*
X003890Y010238D01*
X003852Y010248D01*
X003528Y010248D01*
X003528Y009833D01*
X003979Y009833D01*
X003975Y009817D01*
X003975Y009733D01*
X003528Y009733D01*
X003528Y009319D01*
X003852Y009319D01*
X003890Y009329D01*
X003924Y009348D01*
X003952Y009376D01*
X003972Y009411D01*
X003975Y009423D01*
X003975Y009373D01*
X004235Y009373D01*
X004235Y009353D01*
X003975Y009353D01*
X003975Y008908D01*
X003985Y008870D01*
X004005Y008835D01*
X004033Y008807D01*
X004067Y008788D01*
X004105Y008778D01*
X004235Y008778D01*
X004235Y009353D01*
X004255Y009353D01*
X004255Y008778D01*
X004385Y008778D01*
X004423Y008788D01*
X004457Y008807D01*
X004485Y008835D01*
X004495Y008853D01*
X004495Y008394D01*
X004491Y008390D01*
X004441Y008269D01*
X004441Y008160D01*
X004415Y008176D01*
X004376Y008186D01*
X004052Y008186D01*
X004052Y007771D01*
X003952Y007771D01*
X003952Y008186D01*
X003628Y008186D01*
X003590Y008176D01*
X003556Y008156D01*
X003528Y008128D01*
X003508Y008094D01*
X003500Y008063D01*
X003500Y008750D01*
X003462Y008842D01*
X002900Y009404D01*
X002900Y010396D01*
X003007Y010503D01*
X003069Y010441D01*
X003886Y010441D01*
X003926Y010481D01*
X004000Y010450D01*
X005700Y010450D01*
X005792Y010488D01*
X005892Y010588D01*
X005962Y010658D01*
X006000Y010750D01*
X006000Y010974D01*
X006071Y010903D01*
X006888Y010903D01*
X006918Y010933D01*
X006971Y010879D01*
X007787Y010879D01*
X007820Y010912D01*
X007883Y010849D01*
X008699Y010849D01*
X008775Y010925D01*
X008775Y011663D01*
X008699Y011739D01*
X007883Y011739D01*
X007850Y011706D01*
X007787Y011769D01*
X007629Y011769D01*
X007629Y012421D01*
X007591Y012512D01*
X007162Y012942D01*
X007092Y013012D01*
X007000Y013050D01*
X006500Y013050D01*
X006408Y013012D01*
X006146Y012750D01*
X005100Y012750D01*
X005021Y012717D01*
X005054Y012750D01*
X005500Y012750D01*
X005592Y012788D01*
X005662Y012858D01*
X005828Y013025D01*
X005866Y013116D01*
X005866Y013721D01*
X005887Y013700D01*
X006703Y013700D01*
X006780Y013776D01*
X006780Y014076D01*
X007092Y014388D01*
X007162Y014458D01*
X007200Y014550D01*
X007200Y015850D01*
X007162Y015942D01*
X007000Y016104D01*
X007000Y016627D01*
X007021Y016576D01*
X007236Y016361D01*
X007516Y016245D01*
X007820Y016245D01*
X008100Y016361D01*
X008315Y016576D01*
X008431Y016856D01*
X008431Y017160D01*
X008315Y017441D01*
X008100Y017655D01*
X007820Y017771D01*
X007516Y017771D01*
X007236Y017655D01*
X007021Y017441D01*
X006905Y017160D01*
X006905Y016999D01*
X005762Y018142D01*
X005692Y018212D01*
X005619Y018242D01*
X005897Y018520D01*
X010263Y018520D01*
X010349Y018435D01*
X010349Y017998D01*
X010425Y017921D01*
X011182Y017921D01*
X011259Y017998D01*
X011259Y018020D01*
X011513Y018020D01*
X012163Y017370D01*
X012192Y017358D01*
X011463Y016630D01*
X011370Y016537D01*
X011320Y016416D01*
X011320Y016022D01*
X011210Y015912D01*
X011210Y015588D01*
X011438Y015360D01*
X011762Y015360D01*
X011990Y015588D01*
X011990Y015912D01*
X011980Y015922D01*
X011980Y016213D01*
X013027Y017260D01*
X013212Y017260D01*
X013440Y017488D01*
X013440Y017812D01*
X013212Y018040D01*
X012888Y018040D01*
X012828Y017980D01*
X012487Y017980D01*
X011930Y018537D01*
X011837Y018630D01*
X011716Y018680D01*
X011259Y018680D01*
X011259Y018755D01*
X011182Y018831D01*
X010885Y018831D01*
X010680Y019037D01*
X010587Y019130D01*
X010466Y019180D01*
X005694Y019180D01*
X005573Y019130D01*
X004918Y018475D01*
X004471Y018922D01*
X004396Y018953D01*
X004396Y019011D01*
X004320Y019087D01*
X003504Y019087D01*
X003427Y019011D01*
X003427Y018273D01*
X003504Y018197D01*
X004263Y018197D01*
X004391Y018068D01*
X004391Y017943D01*
X004398Y017925D01*
X004386Y017947D01*
X004358Y017975D01*
X004324Y017995D01*
X004286Y018005D01*
X003962Y018005D01*
X003962Y017590D01*
X003862Y017590D01*
X003862Y018005D01*
X003538Y018005D01*
X003500Y017995D01*
X003465Y017975D01*
X003437Y017947D01*
X003418Y017913D01*
X003407Y017874D01*
X003407Y017590D01*
X003862Y017590D01*
X003862Y017490D01*
X003407Y017490D01*
X003407Y017205D01*
X003418Y017167D01*
X003437Y017133D01*
X003465Y017105D01*
X003500Y017085D01*
X003538Y017075D01*
X003862Y017075D01*
X003862Y017490D01*
X003962Y017490D01*
X003962Y017590D01*
X004381Y017590D01*
X004371Y017543D01*
X004371Y017508D01*
X004918Y017508D01*
X004918Y017508D01*
X004918Y017508D01*
X005465Y017508D01*
X005465Y017474D01*
X005452Y017407D01*
X005425Y017343D01*
X005387Y017286D01*
X005345Y017244D01*
X005395Y017194D01*
X005445Y017074D01*
X005445Y016943D01*
X005395Y016822D01*
X005366Y016793D01*
X005366Y016409D01*
X005376Y016426D01*
X005404Y016454D01*
X005438Y016474D01*
X005476Y016484D01*
X005606Y016484D01*
X005606Y015909D01*
X005626Y015909D01*
X005626Y016484D01*
X005756Y016484D01*
X005794Y016474D01*
X005828Y016454D01*
X005856Y016426D01*
X005876Y016392D01*
X005886Y016354D01*
X005886Y015909D01*
X005626Y015909D01*
X005626Y015889D01*
X005626Y015314D01*
X005756Y015314D01*
X005791Y015323D01*
X005791Y015298D01*
X006245Y015298D01*
X006245Y015713D01*
X005921Y015713D01*
X005886Y015703D01*
X005886Y015889D01*
X005626Y015889D01*
X005606Y015889D01*
X005606Y015314D01*
X005476Y015314D01*
X005438Y015324D01*
X005404Y015344D01*
X005376Y015372D01*
X005358Y015402D01*
X005290Y015334D01*
X004942Y015334D01*
X004866Y015410D01*
X004866Y016388D01*
X004790Y016464D01*
X004442Y016464D01*
X004366Y016388D01*
X004290Y016464D01*
X003942Y016464D01*
X003866Y016388D01*
X003866Y016330D01*
X003848Y016349D01*
X003110Y016349D01*
X003034Y016272D01*
X003034Y015456D01*
X003090Y015400D01*
X003013Y015400D01*
X002955Y015342D01*
X002955Y015354D01*
X002879Y015430D01*
X002796Y015430D01*
X002822Y015456D01*
X002822Y016272D01*
X002746Y016349D01*
X002569Y016349D01*
X002600Y016361D01*
X002815Y016576D01*
X002931Y016856D01*
X002931Y017160D01*
X002815Y017441D01*
X002600Y017655D01*
X002320Y017771D01*
X002016Y017771D01*
X001736Y017655D01*
X001521Y017441D01*
X001405Y017160D01*
X001405Y016856D01*
X001521Y016576D01*
X001736Y016361D01*
X001937Y016278D01*
X001932Y016272D01*
X001932Y015456D01*
X002008Y015380D01*
X002012Y015380D01*
X001987Y015354D01*
X001987Y014617D01*
X002063Y014540D01*
X002879Y014540D01*
X002937Y014598D01*
X002937Y014586D01*
X003013Y014510D01*
X003829Y014510D01*
X003888Y014569D01*
X003866Y014516D01*
X003866Y014260D01*
X003829Y014297D01*
X003013Y014297D01*
X002955Y014240D01*
X002955Y014252D01*
X002879Y014328D01*
X002063Y014328D01*
X001987Y014252D01*
X001987Y014183D01*
X001948Y014183D01*
X001948Y014301D01*
X001872Y014378D01*
X001055Y014378D01*
X000979Y014301D01*
X000979Y013564D01*
X001055Y013488D01*
X001872Y013488D01*
X001948Y013564D01*
X001948Y013683D01*
X001987Y013683D01*
X001987Y013514D01*
X002063Y013438D01*
X002200Y013438D01*
X002200Y012850D01*
X002238Y012758D01*
X002308Y012688D01*
X002808Y012188D01*
X002900Y012150D01*
X003600Y012150D01*
X003692Y012188D01*
X003762Y012258D01*
X003954Y012450D01*
X004700Y012450D01*
X004779Y012483D01*
X004746Y012450D01*
X004300Y012450D01*
X004208Y012412D01*
X004108Y012312D01*
X004038Y012242D01*
X004000Y012150D01*
X004000Y011916D01*
X003995Y011911D01*
X003995Y011102D01*
X003962Y011116D01*
X003962Y011255D01*
X003886Y011331D01*
X003069Y011331D01*
X002993Y011255D01*
X002993Y011050D01*
X002900Y011050D01*
X002808Y011012D01*
X002738Y010942D01*
X002438Y010642D01*
X002400Y010550D01*
X002400Y009250D01*
X002438Y009158D01*
X002508Y009088D01*
X003000Y008596D01*
X003000Y006850D01*
X003038Y006758D01*
X003108Y006688D01*
X003390Y006407D01*
X003482Y006369D01*
X003518Y006369D01*
X003518Y006250D01*
X003594Y006174D01*
X004411Y006174D01*
X004487Y006306D02*
X017487Y006306D01*
X017460Y006404D02*
X004518Y006404D01*
X004620Y006503D02*
X017450Y006503D01*
X017450Y006601D02*
X004719Y006601D01*
X004817Y006700D02*
X011311Y006700D01*
X011329Y006681D02*
X011513Y006605D01*
X011712Y006605D01*
X011896Y006681D01*
X012036Y006822D01*
X012113Y007005D01*
X012189Y006822D01*
X012329Y006681D01*
X012513Y006605D01*
X012712Y006605D01*
X012896Y006681D01*
X013036Y006822D01*
X013113Y007005D01*
X013189Y006822D01*
X013329Y006681D01*
X013513Y006605D01*
X013712Y006605D01*
X013896Y006681D01*
X014036Y006822D01*
X014113Y007005D01*
X014189Y006822D01*
X014329Y006681D01*
X014513Y006605D01*
X014712Y006605D01*
X014896Y006681D01*
X015036Y006822D01*
X015113Y007005D01*
X015189Y006822D01*
X015329Y006681D01*
X015513Y006605D01*
X015712Y006605D01*
X015896Y006681D01*
X016036Y006822D01*
X016113Y007005D01*
X016189Y006822D01*
X016329Y006681D01*
X016513Y006605D01*
X016712Y006605D01*
X016896Y006681D01*
X017036Y006822D01*
X017113Y007005D01*
X017113Y007944D01*
X017036Y008128D01*
X016943Y008222D01*
X016943Y009103D01*
X016892Y009224D01*
X016580Y009537D01*
X016580Y010539D01*
X017239Y011198D01*
X017606Y011198D01*
X017683Y011274D01*
X017683Y012032D01*
X017606Y012108D01*
X017558Y012108D01*
X017558Y012338D01*
X017507Y012459D01*
X017180Y012787D01*
X017087Y012880D01*
X016966Y012930D01*
X016287Y012930D01*
X016199Y013017D01*
X016916Y013017D01*
X016992Y013093D01*
X016992Y013910D01*
X016916Y013986D01*
X016877Y013986D01*
X016877Y014045D01*
X016886Y014054D01*
X016962Y014238D01*
X016962Y014437D01*
X016886Y014621D01*
X016745Y014761D01*
X016672Y014792D01*
X016860Y014792D01*
X016936Y014868D01*
X016936Y015345D01*
X017429Y015837D01*
X017496Y015837D01*
X018132Y015201D01*
X018132Y014715D01*
X018038Y014621D01*
X017962Y014437D01*
X017962Y014238D01*
X018038Y014054D01*
X018179Y013914D01*
X018363Y013837D01*
X018562Y013837D01*
X018745Y013914D01*
X018886Y014054D01*
X018962Y014238D01*
X018962Y014437D01*
X018886Y014621D01*
X018792Y014715D01*
X018792Y015403D01*
X018742Y015524D01*
X017962Y016304D01*
X017962Y016437D01*
X017886Y016621D01*
X017745Y016761D01*
X017562Y016837D01*
X017363Y016837D01*
X017179Y016761D01*
X017038Y016621D01*
X016962Y016437D01*
X016962Y016304D01*
X016418Y015760D01*
X016123Y015760D01*
X016046Y015684D01*
X016046Y014868D01*
X016123Y014792D01*
X016252Y014792D01*
X016179Y014761D01*
X016038Y014621D01*
X015962Y014437D01*
X015962Y014238D01*
X016038Y014054D01*
X016142Y013950D01*
X016102Y013910D01*
X016102Y013115D01*
X015980Y013237D01*
X015980Y014166D01*
X015930Y014287D01*
X015680Y014537D01*
X015587Y014630D01*
X015466Y014680D01*
X015037Y014680D01*
X013980Y015737D01*
X013980Y015790D01*
X014007Y015817D01*
X014007Y016805D01*
X013931Y016881D01*
X013834Y016881D01*
X013716Y016930D01*
X013584Y016930D01*
X013466Y016881D01*
X013343Y016881D01*
X013267Y016805D01*
X013267Y015817D01*
X013320Y015764D01*
X013320Y015534D01*
X013370Y015413D01*
X013463Y015320D01*
X014713Y014070D01*
X014834Y014020D01*
X015263Y014020D01*
X015320Y013963D01*
X015320Y013034D01*
X015370Y012913D01*
X015463Y012820D01*
X015963Y012320D01*
X016084Y012270D01*
X016763Y012270D01*
X016898Y012136D01*
X016898Y012108D01*
X016849Y012108D01*
X016773Y012032D01*
X016773Y011665D01*
X015970Y010863D01*
X015920Y010741D01*
X015920Y009334D01*
X015970Y009213D01*
X016063Y009120D01*
X016283Y008901D01*
X016283Y008222D01*
X016189Y008128D01*
X016113Y007944D01*
X016113Y007005D01*
X016113Y007944D01*
X016036Y008128D01*
X015896Y008269D01*
X015712Y008345D01*
X015513Y008345D01*
X015329Y008269D01*
X015189Y008128D01*
X015113Y007944D01*
X015113Y007005D01*
X015113Y007944D01*
X015036Y008128D01*
X014896Y008269D01*
X014712Y008345D01*
X014513Y008345D01*
X014329Y008269D01*
X014189Y008128D01*
X014113Y007944D01*
X014113Y007005D01*
X014113Y007944D01*
X014036Y008128D01*
X013943Y008222D01*
X013943Y009926D01*
X014137Y010120D01*
X014230Y010213D01*
X014280Y010334D01*
X014280Y013266D01*
X014230Y013387D01*
X013837Y013780D01*
X013716Y013830D01*
X013584Y013830D01*
X013463Y013780D01*
X013433Y013750D01*
X013365Y013750D01*
X013445Y013830D01*
X013505Y013974D01*
X013505Y014129D01*
X013445Y014272D01*
X013336Y014382D01*
X013192Y014441D01*
X013185Y014441D01*
X013185Y015561D01*
X013134Y015682D01*
X012990Y015827D01*
X012990Y015912D01*
X012762Y016140D01*
X012438Y016140D01*
X012210Y015912D01*
X012210Y015588D01*
X012438Y015360D01*
X012523Y015360D01*
X012525Y015359D01*
X012525Y014441D01*
X012517Y014441D01*
X012374Y014382D01*
X012264Y014272D01*
X012205Y014129D01*
X012205Y013974D01*
X012264Y013830D01*
X012344Y013750D01*
X011354Y013750D01*
X010962Y014142D01*
X010892Y014212D01*
X010800Y014250D01*
X010455Y014250D01*
X010445Y014272D01*
X010336Y014382D01*
X010192Y014441D01*
X009517Y014441D01*
X009374Y014382D01*
X009264Y014272D01*
X009205Y014129D01*
X009205Y013974D01*
X009264Y013830D01*
X009374Y013721D01*
X009517Y013661D01*
X010192Y013661D01*
X010336Y013721D01*
X010365Y013750D01*
X010646Y013750D01*
X011108Y013288D01*
X011200Y013250D01*
X012255Y013250D01*
X012205Y013129D01*
X012205Y012974D01*
X012264Y012830D01*
X012374Y012721D01*
X012517Y012661D01*
X013192Y012661D01*
X013336Y012721D01*
X013445Y012830D01*
X013505Y012974D01*
X013505Y013129D01*
X013469Y013214D01*
X013620Y013063D01*
X013620Y010537D01*
X013333Y010250D01*
X013283Y010128D01*
X013283Y008222D01*
X013189Y008128D01*
X013113Y007944D01*
X013113Y007005D01*
X013113Y007944D01*
X013036Y008128D01*
X012896Y008269D01*
X012712Y008345D01*
X012513Y008345D01*
X012329Y008269D01*
X012189Y008128D01*
X012113Y007944D01*
X012113Y007005D01*
X012113Y007944D01*
X012036Y008128D01*
X011943Y008222D01*
X011943Y009303D01*
X011940Y009309D01*
X011940Y009462D01*
X011712Y009690D01*
X011388Y009690D01*
X011160Y009462D01*
X011160Y009138D01*
X011283Y009016D01*
X011283Y008222D01*
X011189Y008128D01*
X011113Y007944D01*
X011113Y007005D01*
X011189Y006822D01*
X011329Y006681D01*
X011212Y006798D02*
X004916Y006798D01*
X005283Y006897D02*
X011158Y006897D01*
X011117Y006995D02*
X005422Y006995D01*
X005476Y007094D02*
X011113Y007094D01*
X011113Y007192D02*
X005495Y007192D01*
X005486Y007291D02*
X011113Y007291D01*
X011113Y007389D02*
X005445Y007389D01*
X005441Y007488D02*
X007452Y007488D01*
X007566Y007440D02*
X007870Y007440D01*
X008150Y007557D01*
X008365Y007771D01*
X008481Y008052D01*
X008481Y008355D01*
X008365Y008636D01*
X008150Y008850D01*
X007967Y008926D01*
X007967Y009727D01*
X008241Y009727D01*
X008241Y010142D01*
X008341Y010142D01*
X008341Y010242D01*
X008241Y010242D01*
X008241Y010657D01*
X007917Y010657D01*
X007879Y010646D01*
X007845Y010627D01*
X007836Y010618D01*
X007787Y010667D01*
X006971Y010667D01*
X006941Y010637D01*
X006888Y010691D01*
X006071Y010691D01*
X005995Y010614D01*
X005995Y009877D01*
X006059Y009813D01*
X006050Y009813D01*
X005995Y009758D01*
X005995Y009851D01*
X005919Y009928D01*
X005571Y009928D01*
X005495Y009851D01*
X005419Y009928D01*
X005071Y009928D01*
X004995Y009851D01*
X004995Y008874D01*
X005071Y008798D01*
X005419Y008798D01*
X005495Y008874D01*
X005571Y008798D01*
X005919Y008798D01*
X005995Y008874D01*
X005995Y008900D01*
X006050Y008845D01*
X006788Y008845D01*
X006864Y008921D01*
X006864Y009737D01*
X006801Y009801D01*
X006888Y009801D01*
X006918Y009831D01*
X006971Y009777D01*
X007116Y009777D01*
X007077Y009737D01*
X007077Y008921D01*
X007153Y008845D01*
X007280Y008845D01*
X007071Y008636D01*
X006955Y008355D01*
X006955Y008052D01*
X007071Y007771D01*
X007285Y007557D01*
X007566Y007440D01*
X007256Y007586D02*
X005495Y007586D01*
X005515Y007685D02*
X007158Y007685D01*
X007066Y007783D02*
X005506Y007783D01*
X005515Y007704D02*
X004968Y007704D01*
X004968Y007704D01*
X005515Y007704D01*
X005466Y007882D02*
X007025Y007882D01*
X006984Y007980D02*
X005407Y007980D01*
X005470Y008079D02*
X006955Y008079D01*
X006955Y008177D02*
X005495Y008177D01*
X005492Y008276D02*
X006955Y008276D01*
X006962Y008374D02*
X005451Y008374D01*
X005362Y008473D02*
X007003Y008473D01*
X007044Y008571D02*
X004995Y008571D01*
X004995Y008670D02*
X007105Y008670D01*
X007203Y008768D02*
X004995Y008768D01*
X004995Y008867D02*
X005002Y008867D01*
X004995Y008965D02*
X004995Y008965D01*
X004995Y009064D02*
X004995Y009064D01*
X004995Y009162D02*
X004995Y009162D01*
X004995Y009261D02*
X004995Y009261D01*
X004995Y009359D02*
X004995Y009359D01*
X004995Y009458D02*
X004995Y009458D01*
X004995Y009556D02*
X004995Y009556D01*
X004995Y009655D02*
X004995Y009655D01*
X004995Y009753D02*
X004995Y009753D01*
X004995Y009852D02*
X004995Y009852D01*
X005495Y009852D02*
X005495Y009852D01*
X005495Y009851D02*
X005495Y009613D01*
X005495Y009851D01*
X005495Y009753D02*
X005495Y009753D01*
X005495Y009655D02*
X005495Y009655D01*
X005495Y009613D02*
X005495Y009613D01*
X005495Y009113D02*
X005495Y008874D01*
X005495Y009113D01*
X005495Y009113D01*
X005495Y009064D02*
X005495Y009064D01*
X005495Y008965D02*
X005495Y008965D01*
X005488Y008867D02*
X005502Y008867D01*
X005988Y008867D02*
X006029Y008867D01*
X006810Y008867D02*
X007131Y008867D01*
X007077Y008965D02*
X006864Y008965D01*
X006864Y009064D02*
X007077Y009064D01*
X007077Y009162D02*
X006864Y009162D01*
X006864Y009261D02*
X007077Y009261D01*
X007077Y009359D02*
X006864Y009359D01*
X006864Y009458D02*
X007077Y009458D01*
X007077Y009556D02*
X006864Y009556D01*
X006864Y009655D02*
X007077Y009655D01*
X007092Y009753D02*
X006849Y009753D01*
X006021Y009852D02*
X005995Y009852D01*
X005995Y009950D02*
X003982Y009950D01*
X003982Y009852D02*
X003984Y009852D01*
X003975Y009753D02*
X003528Y009753D01*
X003528Y009733D02*
X003528Y009833D01*
X003428Y009833D01*
X003428Y009733D01*
X003528Y009733D01*
X003528Y009655D02*
X003428Y009655D01*
X003428Y009733D02*
X003428Y009319D01*
X003103Y009319D01*
X003065Y009329D01*
X003031Y009348D01*
X003003Y009376D01*
X002983Y009411D01*
X002973Y009449D01*
X002973Y009733D01*
X003428Y009733D01*
X003428Y009753D02*
X002900Y009753D01*
X002900Y009655D02*
X002973Y009655D01*
X002973Y009556D02*
X002900Y009556D01*
X002900Y009458D02*
X002973Y009458D01*
X002945Y009359D02*
X003021Y009359D01*
X003043Y009261D02*
X003975Y009261D01*
X003975Y009162D02*
X003142Y009162D01*
X003240Y009064D02*
X003975Y009064D01*
X003975Y008965D02*
X003339Y008965D01*
X003437Y008867D02*
X003987Y008867D01*
X004235Y008867D02*
X004255Y008867D01*
X004255Y008965D02*
X004235Y008965D01*
X004235Y009064D02*
X004255Y009064D01*
X004255Y009162D02*
X004235Y009162D01*
X004235Y009261D02*
X004255Y009261D01*
X004235Y009359D02*
X003935Y009359D01*
X004235Y009458D02*
X004255Y009458D01*
X004255Y009556D02*
X004235Y009556D01*
X004235Y009655D02*
X004255Y009655D01*
X004255Y009753D02*
X004235Y009753D01*
X004235Y009852D02*
X004255Y009852D01*
X003982Y010049D02*
X005995Y010049D01*
X005995Y010147D02*
X003974Y010147D01*
X003862Y010246D02*
X005995Y010246D01*
X005995Y010344D02*
X002900Y010344D01*
X002900Y010246D02*
X003093Y010246D01*
X003103Y010248D02*
X003065Y010238D01*
X003031Y010218D01*
X003003Y010191D01*
X002983Y010156D01*
X002973Y010118D01*
X002973Y009833D01*
X003428Y009833D01*
X003428Y010248D01*
X003103Y010248D01*
X002981Y010147D02*
X002900Y010147D01*
X002900Y010049D02*
X002973Y010049D01*
X002973Y009950D02*
X002900Y009950D01*
X002900Y009852D02*
X002973Y009852D01*
X003428Y009852D02*
X003528Y009852D01*
X003528Y009950D02*
X003428Y009950D01*
X003428Y010049D02*
X003528Y010049D01*
X003528Y010147D02*
X003428Y010147D01*
X003428Y010246D02*
X003528Y010246D01*
X003887Y010443D02*
X005995Y010443D01*
X005995Y010541D02*
X005845Y010541D01*
X005943Y010640D02*
X006020Y010640D01*
X005995Y010738D02*
X009328Y010738D01*
X009380Y010701D01*
X009437Y010671D01*
X009499Y010651D01*
X009562Y010641D01*
X009825Y010641D01*
X009825Y011021D01*
X009885Y011021D01*
X009885Y011081D01*
X010525Y011081D01*
X010525Y011083D01*
X010515Y011147D01*
X010495Y011209D01*
X010465Y011266D01*
X010427Y011318D01*
X010382Y011364D01*
X010330Y011402D01*
X010272Y011431D01*
X010211Y011451D01*
X010147Y011461D01*
X009885Y011461D01*
X009885Y011081D01*
X009825Y011081D01*
X009825Y011461D01*
X009562Y011461D01*
X009499Y011451D01*
X009437Y011431D01*
X009380Y011402D01*
X009328Y011364D01*
X009282Y011318D01*
X009244Y011266D01*
X009215Y011209D01*
X009195Y011147D01*
X009185Y011083D01*
X009185Y011081D01*
X009825Y011081D01*
X009825Y011021D01*
X009185Y011021D01*
X009185Y011019D01*
X009195Y010955D01*
X009215Y010894D01*
X009244Y010836D01*
X009282Y010784D01*
X009328Y010738D01*
X009244Y010837D02*
X006000Y010837D01*
X006000Y010935D02*
X006039Y010935D01*
X006939Y010640D02*
X006943Y010640D01*
X007815Y010640D02*
X007867Y010640D01*
X008241Y010640D02*
X008341Y010640D01*
X008341Y010657D02*
X008341Y010242D01*
X008795Y010242D01*
X008795Y010526D01*
X008785Y010565D01*
X008765Y010599D01*
X008737Y010627D01*
X008703Y010646D01*
X008665Y010657D01*
X008341Y010657D01*
X008341Y010541D02*
X008241Y010541D01*
X008241Y010443D02*
X008341Y010443D01*
X008341Y010344D02*
X008241Y010344D01*
X008241Y010246D02*
X008341Y010246D01*
X008341Y010147D02*
X013290Y010147D01*
X013283Y010049D02*
X008795Y010049D01*
X008795Y010142D02*
X008341Y010142D01*
X008341Y009727D01*
X008665Y009727D01*
X008703Y009737D01*
X008737Y009757D01*
X008765Y009785D01*
X008785Y009819D01*
X008795Y009857D01*
X008795Y010142D01*
X008795Y010246D02*
X013331Y010246D01*
X013427Y010344D02*
X008795Y010344D01*
X008795Y010443D02*
X013526Y010443D01*
X013620Y010541D02*
X008791Y010541D01*
X008715Y010640D02*
X013620Y010640D01*
X013620Y010738D02*
X013353Y010738D01*
X013336Y010721D02*
X013445Y010830D01*
X013505Y010974D01*
X013505Y011129D01*
X013445Y011272D01*
X013336Y011382D01*
X013192Y011441D01*
X012517Y011441D01*
X012374Y011382D01*
X012264Y011272D01*
X012205Y011129D01*
X012205Y010974D01*
X012264Y010830D01*
X012374Y010721D01*
X012517Y010661D01*
X013192Y010661D01*
X013336Y010721D01*
X013448Y010837D02*
X013620Y010837D01*
X013620Y010935D02*
X013489Y010935D01*
X013505Y011034D02*
X013620Y011034D01*
X013620Y011132D02*
X013503Y011132D01*
X013463Y011231D02*
X013620Y011231D01*
X013620Y011329D02*
X013388Y011329D01*
X013225Y011428D02*
X013620Y011428D01*
X013620Y011526D02*
X008775Y011526D01*
X008775Y011428D02*
X009430Y011428D01*
X009293Y011329D02*
X008775Y011329D01*
X008775Y011231D02*
X009226Y011231D01*
X009192Y011132D02*
X008775Y011132D01*
X008775Y011034D02*
X009825Y011034D01*
X009885Y011034D02*
X012205Y011034D01*
X012206Y011132D02*
X010517Y011132D01*
X010483Y011231D02*
X012247Y011231D01*
X012321Y011329D02*
X010417Y011329D01*
X010279Y011428D02*
X012484Y011428D01*
X012517Y011661D02*
X013192Y011661D01*
X013336Y011721D01*
X013445Y011830D01*
X013505Y011974D01*
X013505Y012129D01*
X013445Y012272D01*
X013336Y012382D01*
X013192Y012441D01*
X012517Y012441D01*
X012374Y012382D01*
X012264Y012272D01*
X012205Y012129D01*
X012205Y011974D01*
X012264Y011830D01*
X012374Y011721D01*
X012517Y011661D01*
X012371Y011723D02*
X010338Y011723D01*
X010336Y011721D02*
X010445Y011830D01*
X010505Y011974D01*
X010505Y012129D01*
X010445Y012272D01*
X010336Y012382D01*
X010192Y012441D01*
X009517Y012441D01*
X009374Y012382D01*
X009264Y012272D01*
X009205Y012129D01*
X009205Y011974D01*
X009264Y011830D01*
X009374Y011721D01*
X009517Y011661D01*
X010192Y011661D01*
X010336Y011721D01*
X010437Y011822D02*
X012273Y011822D01*
X012227Y011920D02*
X010483Y011920D01*
X010505Y012019D02*
X012205Y012019D01*
X012205Y012117D02*
X010505Y012117D01*
X010469Y012216D02*
X012241Y012216D01*
X012306Y012314D02*
X010403Y012314D01*
X010261Y012413D02*
X012448Y012413D01*
X012404Y012708D02*
X010305Y012708D01*
X010336Y012721D02*
X010445Y012830D01*
X010505Y012974D01*
X010505Y013129D01*
X010445Y013272D01*
X010336Y013382D01*
X010192Y013441D01*
X009517Y013441D01*
X009374Y013382D01*
X009264Y013272D01*
X009205Y013129D01*
X009205Y012974D01*
X009264Y012830D01*
X009374Y012721D01*
X009517Y012661D01*
X010192Y012661D01*
X010336Y012721D01*
X010422Y012807D02*
X012288Y012807D01*
X012233Y012905D02*
X010476Y012905D01*
X010505Y013004D02*
X012205Y013004D01*
X012205Y013102D02*
X010505Y013102D01*
X010475Y013201D02*
X012234Y013201D01*
X012303Y013792D02*
X011312Y013792D01*
X011214Y013890D02*
X012239Y013890D01*
X012205Y013989D02*
X011115Y013989D01*
X011017Y014087D02*
X012205Y014087D01*
X012228Y014186D02*
X010918Y014186D01*
X010433Y014284D02*
X012276Y014284D01*
X012376Y014383D02*
X010334Y014383D01*
X010269Y013693D02*
X010703Y013693D01*
X010802Y013595D02*
X005866Y013595D01*
X005866Y013693D02*
X009440Y013693D01*
X009303Y013792D02*
X006780Y013792D01*
X006780Y013890D02*
X009239Y013890D01*
X009205Y013989D02*
X006780Y013989D01*
X006791Y014087D02*
X009205Y014087D01*
X009228Y014186D02*
X006889Y014186D01*
X006988Y014284D02*
X009276Y014284D01*
X009376Y014383D02*
X007086Y014383D01*
X007171Y014481D02*
X012525Y014481D01*
X012525Y014580D02*
X007200Y014580D01*
X007200Y014678D02*
X012525Y014678D01*
X012525Y014777D02*
X007200Y014777D01*
X007200Y014875D02*
X012525Y014875D01*
X012525Y014974D02*
X007200Y014974D01*
X007200Y015072D02*
X012525Y015072D01*
X012525Y015171D02*
X007200Y015171D01*
X007200Y015269D02*
X012525Y015269D01*
X012431Y015368D02*
X011769Y015368D01*
X011868Y015466D02*
X012332Y015466D01*
X012234Y015565D02*
X011966Y015565D01*
X011990Y015663D02*
X012210Y015663D01*
X012210Y015762D02*
X011990Y015762D01*
X011990Y015860D02*
X012210Y015860D01*
X012257Y015959D02*
X011980Y015959D01*
X011980Y016057D02*
X012355Y016057D01*
X012119Y016353D02*
X013267Y016353D01*
X013267Y016451D02*
X012218Y016451D01*
X012316Y016550D02*
X013267Y016550D01*
X013267Y016648D02*
X012415Y016648D01*
X012513Y016747D02*
X013267Y016747D01*
X013307Y016845D02*
X012612Y016845D01*
X012710Y016944D02*
X014217Y016944D01*
X014217Y017042D02*
X012809Y017042D01*
X012907Y017141D02*
X014217Y017141D01*
X014217Y017239D02*
X013006Y017239D01*
X013289Y017338D02*
X014217Y017338D01*
X014217Y017436D02*
X013388Y017436D01*
X013440Y017535D02*
X014217Y017535D01*
X014217Y017633D02*
X013440Y017633D01*
X013440Y017732D02*
X014217Y017732D01*
X014217Y017830D02*
X013421Y017830D01*
X013323Y017929D02*
X014217Y017929D01*
X014217Y018027D02*
X013224Y018027D01*
X013212Y018260D02*
X013373Y018421D01*
X013709Y018421D01*
X013373Y018421D01*
X013274Y018323D02*
X013709Y018323D01*
X013709Y018264D02*
X013785Y018188D01*
X014217Y018188D01*
X014217Y016845D01*
X013967Y016845D01*
X014007Y016747D02*
X014177Y016747D01*
X014177Y016805D02*
X014177Y015817D01*
X014253Y015741D01*
X014841Y015741D01*
X014917Y015817D01*
X014917Y016805D01*
X014877Y016845D01*
X015127Y016845D01*
X015163Y016881D02*
X015087Y016805D01*
X015087Y015817D01*
X015127Y015777D01*
X015127Y015760D01*
X015020Y015760D01*
X014944Y015684D01*
X014944Y014868D01*
X015020Y014792D01*
X015758Y014792D01*
X015834Y014868D01*
X015834Y015684D01*
X015787Y015731D01*
X015787Y015777D01*
X015827Y015817D01*
X015827Y016805D01*
X015751Y016881D01*
X015163Y016881D01*
X015087Y016747D02*
X014917Y016747D01*
X014917Y016648D02*
X015087Y016648D01*
X015087Y016550D02*
X014917Y016550D01*
X014917Y016451D02*
X015087Y016451D01*
X015087Y016353D02*
X014917Y016353D01*
X014917Y016254D02*
X015087Y016254D01*
X015087Y016156D02*
X014917Y016156D01*
X014917Y016057D02*
X015087Y016057D01*
X015087Y015959D02*
X014917Y015959D01*
X014917Y015860D02*
X015087Y015860D01*
X015127Y015762D02*
X014862Y015762D01*
X014944Y015663D02*
X014054Y015663D01*
X013980Y015762D02*
X014233Y015762D01*
X014177Y015860D02*
X014007Y015860D01*
X014007Y015959D02*
X014177Y015959D01*
X014177Y016057D02*
X014007Y016057D01*
X014007Y016156D02*
X014177Y016156D01*
X014177Y016254D02*
X014007Y016254D01*
X014007Y016353D02*
X014177Y016353D01*
X014177Y016451D02*
X014007Y016451D01*
X014007Y016550D02*
X014177Y016550D01*
X014177Y016648D02*
X014007Y016648D01*
X014177Y016805D02*
X014217Y016845D01*
X014877Y016845D02*
X014877Y018188D01*
X015310Y018188D01*
X015386Y018264D01*
X015386Y019238D01*
X015310Y019314D01*
X013785Y019314D01*
X013709Y019238D01*
X013709Y019081D01*
X013086Y019081D01*
X012986Y019040D01*
X012888Y019040D01*
X012660Y018812D01*
X012660Y018488D01*
X012888Y018260D01*
X013212Y018260D01*
X012826Y018323D02*
X012144Y018323D01*
X012046Y018421D02*
X012727Y018421D01*
X012660Y018520D02*
X011947Y018520D01*
X011849Y018618D02*
X012660Y018618D01*
X012660Y018717D02*
X011259Y018717D01*
X011199Y018815D02*
X012664Y018815D01*
X012762Y018914D02*
X010803Y018914D01*
X010705Y019012D02*
X012861Y019012D01*
X013709Y019111D02*
X010606Y019111D01*
X010680Y019037D02*
X010680Y019037D01*
X010264Y018520D02*
X005896Y018520D01*
X005798Y018421D02*
X010349Y018421D01*
X010349Y018323D02*
X005699Y018323D01*
X005662Y018224D02*
X010349Y018224D01*
X010349Y018126D02*
X005778Y018126D01*
X005877Y018027D02*
X010349Y018027D01*
X010418Y017929D02*
X005975Y017929D01*
X006074Y017830D02*
X010663Y017830D01*
X010692Y017840D02*
X010621Y017817D01*
X010555Y017783D01*
X010494Y017739D01*
X010441Y017686D01*
X010397Y017625D01*
X010363Y017559D01*
X010340Y017488D01*
X010329Y017414D01*
X010329Y017395D01*
X010785Y017395D01*
X010785Y017357D01*
X010822Y017357D01*
X010822Y016901D01*
X010841Y016901D01*
X010915Y016913D01*
X010986Y016936D01*
X011052Y016970D01*
X011113Y017014D01*
X011166Y017067D01*
X011210Y017127D01*
X011244Y017194D01*
X011267Y017265D01*
X011279Y017339D01*
X011279Y017357D01*
X010822Y017357D01*
X010822Y017395D01*
X010785Y017395D01*
X010785Y017851D01*
X010766Y017851D01*
X010692Y017840D01*
X010785Y017830D02*
X010822Y017830D01*
X010822Y017851D02*
X010822Y017395D01*
X011279Y017395D01*
X011279Y017414D01*
X011267Y017488D01*
X011244Y017559D01*
X011210Y017625D01*
X011166Y017686D01*
X011113Y017739D01*
X011052Y017783D01*
X010986Y017817D01*
X010915Y017840D01*
X010841Y017851D01*
X010822Y017851D01*
X010822Y017732D02*
X010785Y017732D01*
X010785Y017633D02*
X010822Y017633D01*
X010822Y017535D02*
X010785Y017535D01*
X010785Y017436D02*
X010822Y017436D01*
X010785Y017357D02*
X010329Y017357D01*
X010329Y017339D01*
X010340Y017265D01*
X010363Y017194D01*
X010397Y017127D01*
X010441Y017067D01*
X010494Y017014D01*
X010555Y016970D01*
X010621Y016936D01*
X010692Y016913D01*
X010766Y016901D01*
X010785Y016901D01*
X010785Y017357D01*
X010785Y017338D02*
X010822Y017338D01*
X010822Y017239D02*
X010785Y017239D01*
X010785Y017141D02*
X010822Y017141D01*
X010822Y017042D02*
X010785Y017042D01*
X010785Y016944D02*
X010822Y016944D01*
X011000Y016944D02*
X011777Y016944D01*
X011875Y017042D02*
X011141Y017042D01*
X011216Y017141D02*
X011974Y017141D01*
X012072Y017239D02*
X011258Y017239D01*
X011278Y017338D02*
X012171Y017338D01*
X012097Y017436D02*
X011275Y017436D01*
X011252Y017535D02*
X011999Y017535D01*
X011900Y017633D02*
X011204Y017633D01*
X011120Y017732D02*
X011802Y017732D01*
X011703Y017830D02*
X010944Y017830D01*
X011190Y017929D02*
X011605Y017929D01*
X012243Y018224D02*
X013749Y018224D01*
X013709Y018264D02*
X013709Y018421D01*
X014217Y018126D02*
X012341Y018126D01*
X012440Y018027D02*
X012876Y018027D01*
X013709Y019209D02*
X000150Y019209D01*
X000150Y019111D02*
X005554Y019111D01*
X005455Y019012D02*
X004395Y019012D01*
X004480Y018914D02*
X005357Y018914D01*
X005258Y018815D02*
X004578Y018815D01*
X004677Y018717D02*
X005160Y018717D01*
X005061Y018618D02*
X004775Y018618D01*
X004874Y018520D02*
X004963Y018520D01*
X004334Y018126D02*
X000150Y018126D01*
X000150Y018224D02*
X003477Y018224D01*
X003427Y018323D02*
X000150Y018323D01*
X000150Y018421D02*
X003427Y018421D01*
X003427Y018520D02*
X000150Y018520D01*
X000150Y018618D02*
X003427Y018618D01*
X003427Y018717D02*
X000150Y018717D01*
X000150Y018815D02*
X003427Y018815D01*
X003427Y018914D02*
X000150Y018914D01*
X000150Y019012D02*
X003429Y019012D01*
X003427Y017929D02*
X000150Y017929D01*
X000150Y018027D02*
X004391Y018027D01*
X004397Y017929D02*
X004397Y017929D01*
X004371Y017535D02*
X003962Y017535D01*
X003962Y017490D02*
X004371Y017490D01*
X004371Y017508D01*
X004918Y017508D01*
X005465Y017508D01*
X005465Y017543D01*
X005452Y017610D01*
X005425Y017673D01*
X005387Y017730D01*
X005368Y017750D01*
X005446Y017750D01*
X006500Y016696D01*
X006500Y015950D01*
X006538Y015858D01*
X006608Y015788D01*
X006689Y015707D01*
X006669Y015713D01*
X006345Y015713D01*
X006345Y015298D01*
X006245Y015298D01*
X006245Y015198D01*
X005791Y015198D01*
X005791Y014913D01*
X005801Y014875D01*
X003905Y014875D01*
X003905Y014777D02*
X004073Y014777D01*
X004108Y014812D02*
X003975Y014678D01*
X003905Y014609D01*
X003905Y015324D01*
X003848Y015380D01*
X003872Y015404D01*
X003942Y015334D01*
X004290Y015334D01*
X004366Y015410D01*
X004366Y015649D01*
X004366Y015410D01*
X004442Y015334D01*
X004790Y015334D01*
X004866Y015410D01*
X004866Y016680D01*
X004654Y016680D01*
X004534Y016730D01*
X004441Y016822D01*
X004391Y016943D01*
X004391Y017074D01*
X004441Y017194D01*
X004491Y017244D01*
X004449Y017286D01*
X004416Y017335D01*
X004416Y017205D01*
X004406Y017167D01*
X004386Y017133D01*
X004358Y017105D01*
X004324Y017085D01*
X004286Y017075D01*
X003962Y017075D01*
X003962Y017490D01*
X003962Y017436D02*
X003862Y017436D01*
X003862Y017338D02*
X003962Y017338D01*
X003962Y017239D02*
X003862Y017239D01*
X003862Y017141D02*
X003962Y017141D01*
X003862Y017535D02*
X002721Y017535D01*
X002817Y017436D02*
X003407Y017436D01*
X003407Y017338D02*
X002858Y017338D01*
X002898Y017239D02*
X003407Y017239D01*
X003433Y017141D02*
X002931Y017141D01*
X002931Y017042D02*
X004391Y017042D01*
X004391Y016944D02*
X002931Y016944D01*
X002926Y016845D02*
X004432Y016845D01*
X004517Y016747D02*
X002886Y016747D01*
X002845Y016648D02*
X004866Y016648D01*
X004866Y016550D02*
X002789Y016550D01*
X002690Y016451D02*
X003929Y016451D01*
X003866Y016353D02*
X002579Y016353D01*
X002822Y016254D02*
X003034Y016254D01*
X003034Y016156D02*
X002822Y016156D01*
X002822Y016057D02*
X003034Y016057D01*
X003034Y015959D02*
X002822Y015959D01*
X002822Y015860D02*
X003034Y015860D01*
X003034Y015762D02*
X002822Y015762D01*
X002822Y015663D02*
X003034Y015663D01*
X003034Y015565D02*
X002822Y015565D01*
X002822Y015466D02*
X003034Y015466D01*
X002981Y015368D02*
X002942Y015368D01*
X002000Y015368D02*
X001968Y015368D01*
X001968Y015370D02*
X001957Y015408D01*
X001938Y015442D01*
X001910Y015470D01*
X001876Y015490D01*
X001837Y015500D01*
X001513Y015500D01*
X001513Y015085D01*
X001413Y015085D01*
X001413Y014985D01*
X000959Y014985D01*
X000959Y014700D01*
X000969Y014662D01*
X000989Y014628D01*
X001017Y014600D01*
X001051Y014580D01*
X001089Y014570D01*
X001413Y014570D01*
X001413Y014985D01*
X001513Y014985D01*
X001513Y014570D01*
X001837Y014570D01*
X001876Y014580D01*
X001910Y014600D01*
X001938Y014628D01*
X001957Y014662D01*
X001968Y014700D01*
X001968Y014985D01*
X001513Y014985D01*
X001513Y015085D01*
X001968Y015085D01*
X001968Y015370D01*
X001968Y015269D02*
X001987Y015269D01*
X001987Y015171D02*
X001968Y015171D01*
X001987Y015072D02*
X001513Y015072D01*
X001513Y014974D02*
X001413Y014974D01*
X001413Y015072D02*
X000150Y015072D01*
X000150Y014974D02*
X000959Y014974D01*
X000959Y014875D02*
X000150Y014875D01*
X000150Y014777D02*
X000959Y014777D01*
X000965Y014678D02*
X000150Y014678D01*
X000150Y014580D02*
X001054Y014580D01*
X000979Y014284D02*
X000150Y014284D01*
X000150Y014186D02*
X000979Y014186D01*
X000979Y014087D02*
X000150Y014087D01*
X000150Y013989D02*
X000979Y013989D01*
X000979Y013890D02*
X000150Y013890D01*
X000150Y013792D02*
X000979Y013792D01*
X000979Y013693D02*
X000150Y013693D01*
X000150Y013595D02*
X000979Y013595D01*
X001047Y013496D02*
X000150Y013496D01*
X000150Y013398D02*
X002200Y013398D01*
X002200Y013299D02*
X000150Y013299D01*
X000150Y013201D02*
X002200Y013201D01*
X002200Y013102D02*
X000150Y013102D01*
X000150Y013004D02*
X002200Y013004D01*
X002200Y012905D02*
X000150Y012905D01*
X000150Y012807D02*
X002218Y012807D01*
X002288Y012708D02*
X000150Y012708D01*
X000150Y012610D02*
X002387Y012610D01*
X002485Y012511D02*
X000150Y012511D01*
X000150Y012413D02*
X002584Y012413D01*
X002682Y012314D02*
X000150Y012314D01*
X000150Y012216D02*
X002781Y012216D01*
X003719Y012216D02*
X004027Y012216D01*
X004000Y012117D02*
X000150Y012117D01*
X000150Y012019D02*
X004000Y012019D01*
X004000Y011920D02*
X000150Y011920D01*
X000150Y011822D02*
X003995Y011822D01*
X003995Y011723D02*
X000150Y011723D01*
X000150Y011625D02*
X003995Y011625D01*
X003995Y011526D02*
X000150Y011526D01*
X000150Y011428D02*
X003995Y011428D01*
X003995Y011329D02*
X003887Y011329D01*
X003962Y011231D02*
X003995Y011231D01*
X003995Y011132D02*
X003962Y011132D01*
X003068Y011329D02*
X000150Y011329D01*
X000150Y011231D02*
X002993Y011231D01*
X002993Y011132D02*
X000150Y011132D01*
X000150Y011034D02*
X002861Y011034D01*
X002731Y010935D02*
X000150Y010935D01*
X000150Y010837D02*
X002633Y010837D01*
X002534Y010738D02*
X000150Y010738D01*
X000150Y010640D02*
X002437Y010640D01*
X002400Y010541D02*
X000150Y010541D01*
X000150Y010443D02*
X002400Y010443D01*
X002400Y010344D02*
X000150Y010344D01*
X000150Y010246D02*
X002400Y010246D01*
X002400Y010147D02*
X000150Y010147D01*
X000150Y010049D02*
X002400Y010049D01*
X002400Y009950D02*
X000150Y009950D01*
X000150Y009852D02*
X002400Y009852D01*
X002400Y009753D02*
X000150Y009753D01*
X000150Y009655D02*
X002400Y009655D01*
X002400Y009556D02*
X000150Y009556D01*
X000150Y009458D02*
X002400Y009458D01*
X002400Y009359D02*
X000150Y009359D01*
X000150Y009261D02*
X002400Y009261D01*
X002437Y009162D02*
X000150Y009162D01*
X000150Y009064D02*
X002533Y009064D01*
X002631Y008965D02*
X002373Y008965D01*
X002370Y008967D02*
X002066Y008967D01*
X001785Y008850D01*
X001571Y008636D01*
X001455Y008355D01*
X001455Y008052D01*
X001571Y007771D01*
X001785Y007557D01*
X002066Y007440D01*
X002370Y007440D01*
X002650Y007557D01*
X002865Y007771D01*
X002981Y008052D01*
X002981Y008355D01*
X002865Y008636D01*
X002650Y008850D01*
X002370Y008967D01*
X002611Y008867D02*
X002730Y008867D01*
X002732Y008768D02*
X002828Y008768D01*
X002831Y008670D02*
X002927Y008670D01*
X002891Y008571D02*
X003000Y008571D01*
X003000Y008473D02*
X002932Y008473D01*
X002973Y008374D02*
X003000Y008374D01*
X003000Y008276D02*
X002981Y008276D01*
X002981Y008177D02*
X003000Y008177D01*
X003000Y008079D02*
X002981Y008079D01*
X003000Y007980D02*
X002951Y007980D01*
X002910Y007882D02*
X003000Y007882D01*
X003000Y007783D02*
X002869Y007783D01*
X002778Y007685D02*
X003000Y007685D01*
X003000Y007586D02*
X002679Y007586D01*
X002483Y007488D02*
X003000Y007488D01*
X003000Y007389D02*
X000150Y007389D01*
X000150Y007291D02*
X003000Y007291D01*
X003000Y007192D02*
X000150Y007192D01*
X000150Y007094D02*
X003000Y007094D01*
X003000Y006995D02*
X000150Y006995D01*
X000150Y006897D02*
X003000Y006897D01*
X003022Y006798D02*
X000150Y006798D01*
X000150Y006700D02*
X003097Y006700D01*
X003195Y006601D02*
X000150Y006601D01*
X000150Y006503D02*
X003294Y006503D01*
X003396Y006404D02*
X000150Y006404D01*
X000150Y006306D02*
X003518Y006306D01*
X003561Y006207D02*
X000150Y006207D01*
X000150Y007488D02*
X001952Y007488D01*
X001756Y007586D02*
X000150Y007586D01*
X000150Y007685D02*
X001658Y007685D01*
X001566Y007783D02*
X000150Y007783D01*
X000150Y007882D02*
X001525Y007882D01*
X001484Y007980D02*
X000150Y007980D01*
X000150Y008079D02*
X001455Y008079D01*
X001455Y008177D02*
X000150Y008177D01*
X000150Y008276D02*
X001455Y008276D01*
X001462Y008374D02*
X000150Y008374D01*
X000150Y008473D02*
X001503Y008473D01*
X001544Y008571D02*
X000150Y008571D01*
X000150Y008670D02*
X001605Y008670D01*
X001703Y008768D02*
X000150Y008768D01*
X000150Y008867D02*
X001824Y008867D01*
X002062Y008965D02*
X000150Y008965D01*
X002946Y010443D02*
X003068Y010443D01*
X003428Y009556D02*
X003528Y009556D01*
X003528Y009458D02*
X003428Y009458D01*
X003428Y009359D02*
X003528Y009359D01*
X003492Y008768D02*
X004495Y008768D01*
X004495Y008670D02*
X003500Y008670D01*
X003500Y008571D02*
X004495Y008571D01*
X004495Y008473D02*
X003500Y008473D01*
X003500Y008374D02*
X004484Y008374D01*
X004444Y008276D02*
X003500Y008276D01*
X003500Y008177D02*
X003595Y008177D01*
X003504Y008079D02*
X003500Y008079D01*
X003952Y008079D02*
X004052Y008079D01*
X004052Y008177D02*
X003952Y008177D01*
X003952Y007980D02*
X004052Y007980D01*
X004052Y007882D02*
X003952Y007882D01*
X003952Y007783D02*
X004052Y007783D01*
X004052Y007771D02*
X004427Y007771D01*
X004421Y007738D01*
X004421Y007704D01*
X004968Y007704D01*
X004968Y007704D01*
X004421Y007704D01*
X004421Y007671D01*
X004052Y007671D01*
X004052Y007256D01*
X004376Y007256D01*
X004415Y007266D01*
X004448Y007285D01*
X004441Y007269D01*
X004441Y007138D01*
X004472Y007062D01*
X004442Y007032D01*
X004411Y007063D01*
X003594Y007063D01*
X003518Y006987D01*
X003518Y006986D01*
X003500Y007004D01*
X003500Y007379D01*
X003508Y007348D01*
X003528Y007314D01*
X003556Y007286D01*
X003590Y007266D01*
X003628Y007256D01*
X003952Y007256D01*
X003952Y007671D01*
X004052Y007671D01*
X004052Y007771D01*
X004052Y007685D02*
X004421Y007685D01*
X004052Y007586D02*
X003952Y007586D01*
X003952Y007488D02*
X004052Y007488D01*
X004052Y007389D02*
X003952Y007389D01*
X003952Y007291D02*
X004052Y007291D01*
X004441Y007192D02*
X003500Y007192D01*
X003500Y007094D02*
X004459Y007094D01*
X003551Y007291D02*
X003500Y007291D01*
X003509Y006995D02*
X003526Y006995D01*
X004409Y008177D02*
X004441Y008177D01*
X007983Y007488D02*
X011113Y007488D01*
X011113Y007586D02*
X008179Y007586D01*
X008278Y007685D02*
X011113Y007685D01*
X011113Y007783D02*
X008369Y007783D01*
X008410Y007882D02*
X011113Y007882D01*
X011127Y007980D02*
X008451Y007980D01*
X008481Y008079D02*
X011168Y008079D01*
X011238Y008177D02*
X008481Y008177D01*
X008481Y008276D02*
X011283Y008276D01*
X011283Y008374D02*
X008473Y008374D01*
X008432Y008473D02*
X011283Y008473D01*
X011283Y008571D02*
X008391Y008571D01*
X008331Y008670D02*
X011283Y008670D01*
X011283Y008768D02*
X008232Y008768D01*
X008111Y008867D02*
X011283Y008867D01*
X011283Y008965D02*
X010795Y008965D01*
X010720Y008890D02*
X010960Y009130D01*
X010960Y009270D01*
X010580Y009270D01*
X010580Y009330D01*
X010960Y009330D01*
X010960Y009470D01*
X010720Y009710D01*
X010580Y009710D01*
X010580Y009330D01*
X010520Y009330D01*
X010520Y009710D01*
X010380Y009710D01*
X010140Y009470D01*
X010140Y009330D01*
X010520Y009330D01*
X010520Y009270D01*
X010580Y009270D01*
X010580Y008890D01*
X010720Y008890D01*
X010580Y008965D02*
X010520Y008965D01*
X010520Y008890D02*
X010520Y009270D01*
X010140Y009270D01*
X010140Y009130D01*
X010380Y008890D01*
X010520Y008890D01*
X010520Y009064D02*
X010580Y009064D01*
X010580Y009162D02*
X010520Y009162D01*
X010520Y009261D02*
X010580Y009261D01*
X010580Y009359D02*
X010520Y009359D01*
X010520Y009458D02*
X010580Y009458D01*
X010580Y009556D02*
X010520Y009556D01*
X010520Y009655D02*
X010580Y009655D01*
X010775Y009655D02*
X011353Y009655D01*
X011254Y009556D02*
X010874Y009556D01*
X010960Y009458D02*
X011160Y009458D01*
X011160Y009359D02*
X010960Y009359D01*
X010960Y009261D02*
X011160Y009261D01*
X011160Y009162D02*
X010960Y009162D01*
X010893Y009064D02*
X011235Y009064D01*
X011943Y009064D02*
X013283Y009064D01*
X013283Y009162D02*
X011943Y009162D01*
X011943Y009261D02*
X013283Y009261D01*
X013283Y009359D02*
X011940Y009359D01*
X011940Y009458D02*
X013283Y009458D01*
X013283Y009556D02*
X011846Y009556D01*
X011747Y009655D02*
X013283Y009655D01*
X013283Y009753D02*
X008731Y009753D01*
X008794Y009852D02*
X013283Y009852D01*
X013283Y009950D02*
X008795Y009950D01*
X008341Y009950D02*
X008241Y009950D01*
X008241Y009852D02*
X008341Y009852D01*
X008341Y009753D02*
X008241Y009753D01*
X007967Y009655D02*
X010325Y009655D01*
X010226Y009556D02*
X007967Y009556D01*
X007967Y009458D02*
X010140Y009458D01*
X010140Y009359D02*
X007967Y009359D01*
X007967Y009261D02*
X010140Y009261D01*
X010140Y009162D02*
X007967Y009162D01*
X007967Y009064D02*
X010207Y009064D01*
X010305Y008965D02*
X007967Y008965D01*
X008241Y010049D02*
X008341Y010049D01*
X008775Y010935D02*
X009201Y010935D01*
X009825Y010935D02*
X009885Y010935D01*
X009885Y011021D02*
X009885Y010641D01*
X010147Y010641D01*
X010211Y010651D01*
X010272Y010671D01*
X010330Y010701D01*
X010382Y010738D01*
X010427Y010784D01*
X010465Y010836D01*
X010495Y010894D01*
X010515Y010955D01*
X010525Y011019D01*
X010525Y011021D01*
X009885Y011021D01*
X009885Y011132D02*
X009825Y011132D01*
X009825Y011231D02*
X009885Y011231D01*
X009885Y011329D02*
X009825Y011329D01*
X009825Y011428D02*
X009885Y011428D01*
X009885Y010837D02*
X009825Y010837D01*
X009825Y010738D02*
X009885Y010738D01*
X010381Y010738D02*
X012356Y010738D01*
X012262Y010837D02*
X010466Y010837D01*
X010508Y010935D02*
X012221Y010935D01*
X013338Y011723D02*
X013620Y011723D01*
X013620Y011625D02*
X008775Y011625D01*
X008715Y011723D02*
X009371Y011723D01*
X009273Y011822D02*
X007629Y011822D01*
X007629Y011920D02*
X009227Y011920D01*
X009205Y012019D02*
X007629Y012019D01*
X007629Y012117D02*
X009205Y012117D01*
X009241Y012216D02*
X007629Y012216D01*
X007629Y012314D02*
X009306Y012314D01*
X009448Y012413D02*
X007629Y012413D01*
X007592Y012511D02*
X013620Y012511D01*
X013620Y012413D02*
X013261Y012413D01*
X013403Y012314D02*
X013620Y012314D01*
X013620Y012216D02*
X013469Y012216D01*
X013505Y012117D02*
X013620Y012117D01*
X013620Y012019D02*
X013505Y012019D01*
X013483Y011920D02*
X013620Y011920D01*
X013620Y011822D02*
X013437Y011822D01*
X014280Y011822D02*
X016773Y011822D01*
X016773Y011920D02*
X014280Y011920D01*
X014280Y012019D02*
X016773Y012019D01*
X016898Y012117D02*
X014280Y012117D01*
X014280Y012216D02*
X016818Y012216D01*
X016773Y011723D02*
X014280Y011723D01*
X014280Y011625D02*
X016732Y011625D01*
X016634Y011526D02*
X014280Y011526D01*
X014280Y011428D02*
X016535Y011428D01*
X016437Y011329D02*
X014280Y011329D01*
X014280Y011231D02*
X016338Y011231D01*
X016240Y011132D02*
X014280Y011132D01*
X014280Y011034D02*
X016141Y011034D01*
X016043Y010935D02*
X014280Y010935D01*
X014280Y010837D02*
X015959Y010837D01*
X015920Y010738D02*
X014280Y010738D01*
X014280Y010640D02*
X015920Y010640D01*
X015920Y010541D02*
X014280Y010541D01*
X014280Y010443D02*
X015920Y010443D01*
X015920Y010344D02*
X014280Y010344D01*
X014243Y010246D02*
X015920Y010246D01*
X015920Y010147D02*
X014164Y010147D01*
X014065Y010049D02*
X015920Y010049D01*
X015920Y009950D02*
X013967Y009950D01*
X013943Y009852D02*
X015920Y009852D01*
X015920Y009753D02*
X013943Y009753D01*
X013943Y009655D02*
X015920Y009655D01*
X015920Y009556D02*
X013943Y009556D01*
X013943Y009458D02*
X015920Y009458D01*
X015920Y009359D02*
X013943Y009359D01*
X013943Y009261D02*
X015951Y009261D01*
X016021Y009162D02*
X013943Y009162D01*
X013943Y009064D02*
X016120Y009064D01*
X016218Y008965D02*
X013943Y008965D01*
X013943Y008867D02*
X016283Y008867D01*
X016283Y008768D02*
X013943Y008768D01*
X013943Y008670D02*
X016283Y008670D01*
X016283Y008571D02*
X013943Y008571D01*
X013943Y008473D02*
X016283Y008473D01*
X016283Y008374D02*
X013943Y008374D01*
X013943Y008276D02*
X014346Y008276D01*
X014238Y008177D02*
X013987Y008177D01*
X014057Y008079D02*
X014168Y008079D01*
X014127Y007980D02*
X014098Y007980D01*
X014113Y007882D02*
X014113Y007882D01*
X014113Y007783D02*
X014113Y007783D01*
X014113Y007685D02*
X014113Y007685D01*
X014113Y007586D02*
X014113Y007586D01*
X014113Y007488D02*
X014113Y007488D01*
X014113Y007389D02*
X014113Y007389D01*
X014113Y007291D02*
X014113Y007291D01*
X014113Y007192D02*
X014113Y007192D01*
X014113Y007094D02*
X014113Y007094D01*
X014108Y006995D02*
X014117Y006995D01*
X014158Y006897D02*
X014068Y006897D01*
X014013Y006798D02*
X014212Y006798D01*
X014311Y006700D02*
X013914Y006700D01*
X013311Y006700D02*
X012914Y006700D01*
X013013Y006798D02*
X013212Y006798D01*
X013158Y006897D02*
X013068Y006897D01*
X013108Y006995D02*
X013117Y006995D01*
X013113Y007094D02*
X013113Y007094D01*
X013113Y007192D02*
X013113Y007192D01*
X013113Y007291D02*
X013113Y007291D01*
X013113Y007389D02*
X013113Y007389D01*
X013113Y007488D02*
X013113Y007488D01*
X013113Y007586D02*
X013113Y007586D01*
X013113Y007685D02*
X013113Y007685D01*
X013113Y007783D02*
X013113Y007783D01*
X013113Y007882D02*
X013113Y007882D01*
X013127Y007980D02*
X013098Y007980D01*
X013057Y008079D02*
X013168Y008079D01*
X013238Y008177D02*
X012987Y008177D01*
X012879Y008276D02*
X013283Y008276D01*
X013283Y008374D02*
X011943Y008374D01*
X011943Y008276D02*
X012346Y008276D01*
X012238Y008177D02*
X011987Y008177D01*
X012057Y008079D02*
X012168Y008079D01*
X012127Y007980D02*
X012098Y007980D01*
X012113Y007882D02*
X012113Y007882D01*
X012113Y007783D02*
X012113Y007783D01*
X012113Y007685D02*
X012113Y007685D01*
X012113Y007586D02*
X012113Y007586D01*
X012113Y007488D02*
X012113Y007488D01*
X012113Y007389D02*
X012113Y007389D01*
X012113Y007291D02*
X012113Y007291D01*
X012113Y007192D02*
X012113Y007192D01*
X012113Y007094D02*
X012113Y007094D01*
X012108Y006995D02*
X012117Y006995D01*
X012158Y006897D02*
X012068Y006897D01*
X012013Y006798D02*
X012212Y006798D01*
X012311Y006700D02*
X011914Y006700D01*
X011943Y008473D02*
X013283Y008473D01*
X013283Y008571D02*
X011943Y008571D01*
X011943Y008670D02*
X013283Y008670D01*
X013283Y008768D02*
X011943Y008768D01*
X011943Y008867D02*
X013283Y008867D01*
X013283Y008965D02*
X011943Y008965D01*
X014879Y008276D02*
X015346Y008276D01*
X015238Y008177D02*
X014987Y008177D01*
X015057Y008079D02*
X015168Y008079D01*
X015127Y007980D02*
X015098Y007980D01*
X015113Y007882D02*
X015113Y007882D01*
X015113Y007783D02*
X015113Y007783D01*
X015113Y007685D02*
X015113Y007685D01*
X015113Y007586D02*
X015113Y007586D01*
X015113Y007488D02*
X015113Y007488D01*
X015113Y007389D02*
X015113Y007389D01*
X015113Y007291D02*
X015113Y007291D01*
X015113Y007192D02*
X015113Y007192D01*
X015113Y007094D02*
X015113Y007094D01*
X015108Y006995D02*
X015117Y006995D01*
X015158Y006897D02*
X015068Y006897D01*
X015013Y006798D02*
X015212Y006798D01*
X015311Y006700D02*
X014914Y006700D01*
X015914Y006700D02*
X016311Y006700D01*
X016212Y006798D02*
X016013Y006798D01*
X016068Y006897D02*
X016158Y006897D01*
X016117Y006995D02*
X016108Y006995D01*
X016113Y007094D02*
X016113Y007094D01*
X016113Y007192D02*
X016113Y007192D01*
X016113Y007291D02*
X016113Y007291D01*
X016113Y007389D02*
X016113Y007389D01*
X016113Y007488D02*
X016113Y007488D01*
X016113Y007586D02*
X016113Y007586D01*
X016113Y007685D02*
X016113Y007685D01*
X016113Y007783D02*
X016113Y007783D01*
X016113Y007882D02*
X016113Y007882D01*
X016127Y007980D02*
X016098Y007980D01*
X016057Y008079D02*
X016168Y008079D01*
X016238Y008177D02*
X015987Y008177D01*
X015879Y008276D02*
X016283Y008276D01*
X016943Y008276D02*
X019650Y008276D01*
X019650Y008374D02*
X016943Y008374D01*
X016943Y008473D02*
X019650Y008473D01*
X019650Y008571D02*
X016943Y008571D01*
X016943Y008670D02*
X019650Y008670D01*
X019650Y008768D02*
X016943Y008768D01*
X016943Y008867D02*
X019650Y008867D01*
X019650Y008965D02*
X016943Y008965D01*
X016943Y009064D02*
X019650Y009064D01*
X019650Y009162D02*
X016918Y009162D01*
X016979Y009247D02*
X017045Y009213D01*
X017116Y009190D01*
X017190Y009178D01*
X017209Y009178D01*
X017209Y009634D01*
X017246Y009634D01*
X017246Y009178D01*
X017265Y009178D01*
X017339Y009190D01*
X017410Y009213D01*
X017477Y009247D01*
X017537Y009291D01*
X017590Y009344D01*
X017634Y009404D01*
X017668Y009471D01*
X017691Y009542D01*
X017703Y009616D01*
X017703Y009634D01*
X017246Y009634D01*
X017246Y009672D01*
X017209Y009672D01*
X017209Y010128D01*
X017190Y010128D01*
X017116Y010116D01*
X017045Y010093D01*
X016979Y010059D01*
X016918Y010015D01*
X016865Y009963D01*
X016821Y009902D01*
X016787Y009835D01*
X016764Y009764D01*
X016753Y009691D01*
X016753Y009672D01*
X017209Y009672D01*
X017209Y009634D01*
X016753Y009634D01*
X016753Y009616D01*
X016764Y009542D01*
X016787Y009471D01*
X016821Y009404D01*
X016865Y009344D01*
X016918Y009291D01*
X016979Y009247D01*
X016960Y009261D02*
X016856Y009261D01*
X016854Y009359D02*
X016758Y009359D01*
X016794Y009458D02*
X016659Y009458D01*
X016580Y009556D02*
X016762Y009556D01*
X016762Y009753D02*
X016580Y009753D01*
X016580Y009655D02*
X017209Y009655D01*
X017246Y009655D02*
X019650Y009655D01*
X019650Y009753D02*
X017693Y009753D01*
X017691Y009764D02*
X017668Y009835D01*
X017634Y009902D01*
X017590Y009963D01*
X017537Y010015D01*
X017477Y010059D01*
X017410Y010093D01*
X017339Y010116D01*
X017265Y010128D01*
X017246Y010128D01*
X017246Y009672D01*
X017703Y009672D01*
X017703Y009691D01*
X017691Y009764D01*
X017660Y009852D02*
X019650Y009852D01*
X019650Y009950D02*
X017599Y009950D01*
X017491Y010049D02*
X019650Y010049D01*
X019650Y010147D02*
X016580Y010147D01*
X016580Y010049D02*
X016964Y010049D01*
X016856Y009950D02*
X016580Y009950D01*
X016580Y009852D02*
X016796Y009852D01*
X017209Y009852D02*
X017246Y009852D01*
X017246Y009950D02*
X017209Y009950D01*
X017209Y010049D02*
X017246Y010049D01*
X017246Y009753D02*
X017209Y009753D01*
X017209Y009556D02*
X017246Y009556D01*
X017246Y009458D02*
X017209Y009458D01*
X017209Y009359D02*
X017246Y009359D01*
X017246Y009261D02*
X017209Y009261D01*
X017495Y009261D02*
X019650Y009261D01*
X019650Y009359D02*
X017601Y009359D01*
X017661Y009458D02*
X019650Y009458D01*
X019650Y009556D02*
X017693Y009556D01*
X016580Y010246D02*
X019650Y010246D01*
X019650Y010344D02*
X016580Y010344D01*
X016580Y010443D02*
X019650Y010443D01*
X019650Y010541D02*
X016582Y010541D01*
X016681Y010640D02*
X019650Y010640D01*
X019650Y010738D02*
X016779Y010738D01*
X016878Y010837D02*
X019650Y010837D01*
X019650Y010935D02*
X016976Y010935D01*
X017075Y011034D02*
X019650Y011034D01*
X019650Y011132D02*
X017173Y011132D01*
X017639Y011231D02*
X019650Y011231D01*
X019650Y011329D02*
X017683Y011329D01*
X017683Y011428D02*
X019650Y011428D01*
X019650Y011526D02*
X017683Y011526D01*
X017683Y011625D02*
X019650Y011625D01*
X019650Y011723D02*
X017683Y011723D01*
X017683Y011822D02*
X019650Y011822D01*
X019650Y011920D02*
X017683Y011920D01*
X017683Y012019D02*
X019650Y012019D01*
X019650Y012117D02*
X017558Y012117D01*
X017558Y012216D02*
X019650Y012216D01*
X019650Y012314D02*
X017558Y012314D01*
X017527Y012413D02*
X019650Y012413D01*
X019650Y012511D02*
X017456Y012511D01*
X017357Y012610D02*
X019650Y012610D01*
X019650Y012708D02*
X017259Y012708D01*
X017160Y012807D02*
X019650Y012807D01*
X019650Y012905D02*
X017026Y012905D01*
X016992Y013102D02*
X017191Y013102D01*
X017194Y013089D02*
X017214Y013055D01*
X017242Y013027D01*
X017276Y013007D01*
X017315Y012997D01*
X017599Y012997D01*
X017599Y013452D01*
X017184Y013452D01*
X017184Y013127D01*
X017194Y013089D01*
X017184Y013201D02*
X016992Y013201D01*
X016992Y013299D02*
X017184Y013299D01*
X017184Y013398D02*
X016992Y013398D01*
X016992Y013496D02*
X017599Y013496D01*
X017599Y013452D02*
X017599Y013552D01*
X017599Y014006D01*
X017315Y014006D01*
X017276Y013996D01*
X017242Y013976D01*
X017214Y013948D01*
X017194Y013914D01*
X017184Y013876D01*
X017184Y013552D01*
X017599Y013552D01*
X017699Y013552D01*
X017699Y014006D01*
X017984Y014006D01*
X018022Y013996D01*
X018056Y013976D01*
X018084Y013948D01*
X018104Y013914D01*
X018114Y013876D01*
X018114Y013552D01*
X017699Y013552D01*
X017699Y013452D01*
X018114Y013452D01*
X018114Y013127D01*
X018104Y013089D01*
X018084Y013055D01*
X018056Y013027D01*
X018022Y013007D01*
X017984Y012997D01*
X017699Y012997D01*
X017699Y013452D01*
X017599Y013452D01*
X017599Y013398D02*
X017699Y013398D01*
X017699Y013496D02*
X019650Y013496D01*
X019650Y013398D02*
X018114Y013398D01*
X018114Y013299D02*
X019650Y013299D01*
X019650Y013201D02*
X018114Y013201D01*
X018107Y013102D02*
X019650Y013102D01*
X019650Y013004D02*
X018007Y013004D01*
X017699Y013004D02*
X017599Y013004D01*
X017599Y013102D02*
X017699Y013102D01*
X017699Y013201D02*
X017599Y013201D01*
X017599Y013299D02*
X017699Y013299D01*
X017699Y013595D02*
X017599Y013595D01*
X017599Y013693D02*
X017699Y013693D01*
X017699Y013792D02*
X017599Y013792D01*
X017599Y013890D02*
X017699Y013890D01*
X017699Y013989D02*
X017599Y013989D01*
X017264Y013989D02*
X016877Y013989D01*
X016900Y014087D02*
X018025Y014087D01*
X018034Y013989D02*
X018104Y013989D01*
X018110Y013890D02*
X018236Y013890D01*
X018114Y013792D02*
X019650Y013792D01*
X019650Y013890D02*
X018689Y013890D01*
X018820Y013989D02*
X019650Y013989D01*
X019650Y014087D02*
X018900Y014087D01*
X018940Y014186D02*
X019650Y014186D01*
X019650Y014284D02*
X018962Y014284D01*
X018962Y014383D02*
X019650Y014383D01*
X019650Y014481D02*
X018944Y014481D01*
X018903Y014580D02*
X019650Y014580D01*
X019650Y014678D02*
X018829Y014678D01*
X018792Y014777D02*
X019650Y014777D01*
X019650Y014875D02*
X018792Y014875D01*
X018792Y014974D02*
X019650Y014974D01*
X019650Y015072D02*
X018792Y015072D01*
X018792Y015171D02*
X019650Y015171D01*
X019650Y015269D02*
X018792Y015269D01*
X018792Y015368D02*
X019650Y015368D01*
X019650Y015466D02*
X018766Y015466D01*
X018702Y015565D02*
X019650Y015565D01*
X019650Y015663D02*
X018603Y015663D01*
X018505Y015762D02*
X019650Y015762D01*
X019650Y015860D02*
X018406Y015860D01*
X018308Y015959D02*
X019650Y015959D01*
X019650Y016057D02*
X018209Y016057D01*
X018111Y016156D02*
X019650Y016156D01*
X019650Y016254D02*
X018012Y016254D01*
X017962Y016353D02*
X019650Y016353D01*
X019650Y016451D02*
X017956Y016451D01*
X017916Y016550D02*
X019650Y016550D01*
X019650Y016648D02*
X017859Y016648D01*
X017760Y016747D02*
X019650Y016747D01*
X019650Y016845D02*
X015787Y016845D01*
X015827Y016747D02*
X017164Y016747D01*
X017066Y016648D02*
X015827Y016648D01*
X015827Y016550D02*
X017009Y016550D01*
X016968Y016451D02*
X015827Y016451D01*
X015827Y016353D02*
X016962Y016353D01*
X016912Y016254D02*
X015827Y016254D01*
X015827Y016156D02*
X016814Y016156D01*
X016715Y016057D02*
X015827Y016057D01*
X015827Y015959D02*
X016617Y015959D01*
X016518Y015860D02*
X015827Y015860D01*
X015787Y015762D02*
X016420Y015762D01*
X016046Y015663D02*
X015834Y015663D01*
X015834Y015565D02*
X016046Y015565D01*
X016046Y015466D02*
X015834Y015466D01*
X015834Y015368D02*
X016046Y015368D01*
X016046Y015269D02*
X015834Y015269D01*
X015834Y015171D02*
X016046Y015171D01*
X016046Y015072D02*
X015834Y015072D01*
X015834Y014974D02*
X016046Y014974D01*
X016046Y014875D02*
X015834Y014875D01*
X016096Y014678D02*
X015470Y014678D01*
X015637Y014580D02*
X016021Y014580D01*
X015981Y014481D02*
X015736Y014481D01*
X015834Y014383D02*
X015962Y014383D01*
X015962Y014284D02*
X015931Y014284D01*
X015972Y014186D02*
X015984Y014186D01*
X015980Y014087D02*
X016025Y014087D01*
X015980Y013989D02*
X016104Y013989D01*
X016102Y013890D02*
X015980Y013890D01*
X015980Y013792D02*
X016102Y013792D01*
X016102Y013693D02*
X015980Y013693D01*
X015980Y013595D02*
X016102Y013595D01*
X016102Y013496D02*
X015980Y013496D01*
X015980Y013398D02*
X016102Y013398D01*
X016102Y013299D02*
X015980Y013299D01*
X016016Y013201D02*
X016102Y013201D01*
X016213Y013004D02*
X017291Y013004D01*
X017184Y013595D02*
X016992Y013595D01*
X016992Y013693D02*
X017184Y013693D01*
X017184Y013792D02*
X016992Y013792D01*
X016992Y013890D02*
X017188Y013890D01*
X016940Y014186D02*
X017984Y014186D01*
X017962Y014284D02*
X016962Y014284D01*
X016962Y014383D02*
X017962Y014383D01*
X017981Y014481D02*
X016944Y014481D01*
X016903Y014580D02*
X018021Y014580D01*
X018096Y014678D02*
X016829Y014678D01*
X016709Y014777D02*
X018132Y014777D01*
X018132Y014875D02*
X016936Y014875D01*
X016936Y014974D02*
X018132Y014974D01*
X018132Y015072D02*
X016936Y015072D01*
X016936Y015171D02*
X018132Y015171D01*
X018064Y015269D02*
X016936Y015269D01*
X016959Y015368D02*
X017965Y015368D01*
X017867Y015466D02*
X017058Y015466D01*
X017156Y015565D02*
X017768Y015565D01*
X017670Y015663D02*
X017255Y015663D01*
X017353Y015762D02*
X017571Y015762D01*
X016216Y014777D02*
X014940Y014777D01*
X014944Y014875D02*
X014842Y014875D01*
X014743Y014974D02*
X014944Y014974D01*
X014944Y015072D02*
X014645Y015072D01*
X014546Y015171D02*
X014944Y015171D01*
X014944Y015269D02*
X014448Y015269D01*
X014349Y015368D02*
X014944Y015368D01*
X014944Y015466D02*
X014251Y015466D01*
X014152Y015565D02*
X014944Y015565D01*
X014105Y014678D02*
X013185Y014678D01*
X013185Y014580D02*
X014204Y014580D01*
X014302Y014481D02*
X013185Y014481D01*
X013334Y014383D02*
X014401Y014383D01*
X014499Y014284D02*
X013433Y014284D01*
X013481Y014186D02*
X014598Y014186D01*
X014696Y014087D02*
X013505Y014087D01*
X013505Y013989D02*
X015295Y013989D01*
X015320Y013890D02*
X013470Y013890D01*
X013491Y013792D02*
X013407Y013792D01*
X013809Y013792D02*
X015320Y013792D01*
X015320Y013693D02*
X013924Y013693D01*
X014022Y013595D02*
X015320Y013595D01*
X015320Y013496D02*
X014121Y013496D01*
X014219Y013398D02*
X015320Y013398D01*
X015320Y013299D02*
X014266Y013299D01*
X014280Y013201D02*
X015320Y013201D01*
X015320Y013102D02*
X014280Y013102D01*
X014280Y013004D02*
X015333Y013004D01*
X015378Y012905D02*
X014280Y012905D01*
X014280Y012807D02*
X015477Y012807D01*
X015575Y012708D02*
X014280Y012708D01*
X014280Y012610D02*
X015674Y012610D01*
X015772Y012511D02*
X014280Y012511D01*
X014280Y012413D02*
X015871Y012413D01*
X015978Y012314D02*
X014280Y012314D01*
X013620Y012610D02*
X007494Y012610D01*
X007396Y012708D02*
X009404Y012708D01*
X009288Y012807D02*
X007297Y012807D01*
X007199Y012905D02*
X009233Y012905D01*
X009205Y013004D02*
X007100Y013004D01*
X006400Y013004D02*
X005807Y013004D01*
X005860Y013102D02*
X009205Y013102D01*
X009234Y013201D02*
X005866Y013201D01*
X005866Y013299D02*
X009291Y013299D01*
X009412Y013398D02*
X005866Y013398D01*
X005866Y013496D02*
X010900Y013496D01*
X010999Y013398D02*
X010298Y013398D01*
X010418Y013299D02*
X011097Y013299D01*
X013305Y012708D02*
X013620Y012708D01*
X013620Y012807D02*
X013422Y012807D01*
X013476Y012905D02*
X013620Y012905D01*
X013620Y013004D02*
X013505Y013004D01*
X013505Y013102D02*
X013581Y013102D01*
X013483Y013201D02*
X013475Y013201D01*
X013185Y014777D02*
X014007Y014777D01*
X013908Y014875D02*
X013185Y014875D01*
X013185Y014974D02*
X013810Y014974D01*
X013711Y015072D02*
X013185Y015072D01*
X013185Y015171D02*
X013613Y015171D01*
X013514Y015269D02*
X013185Y015269D01*
X013185Y015368D02*
X013416Y015368D01*
X013348Y015466D02*
X013185Y015466D01*
X013183Y015565D02*
X013320Y015565D01*
X013320Y015663D02*
X013142Y015663D01*
X013055Y015762D02*
X013320Y015762D01*
X013267Y015860D02*
X012990Y015860D01*
X012943Y015959D02*
X013267Y015959D01*
X013267Y016057D02*
X012845Y016057D01*
X013267Y016156D02*
X011980Y016156D01*
X012021Y016254D02*
X013267Y016254D01*
X011678Y016845D02*
X008426Y016845D01*
X008431Y016944D02*
X010607Y016944D01*
X010466Y017042D02*
X008431Y017042D01*
X008431Y017141D02*
X010391Y017141D01*
X010349Y017239D02*
X008398Y017239D01*
X008358Y017338D02*
X010329Y017338D01*
X010332Y017436D02*
X008317Y017436D01*
X008221Y017535D02*
X010355Y017535D01*
X010403Y017633D02*
X008122Y017633D01*
X007916Y017732D02*
X010487Y017732D01*
X011481Y016648D02*
X008345Y016648D01*
X008386Y016747D02*
X011580Y016747D01*
X011383Y016550D02*
X008289Y016550D01*
X008190Y016451D02*
X011335Y016451D01*
X011320Y016353D02*
X008079Y016353D01*
X007841Y016254D02*
X011320Y016254D01*
X011320Y016156D02*
X007000Y016156D01*
X007000Y016254D02*
X007495Y016254D01*
X007257Y016353D02*
X007000Y016353D01*
X007000Y016451D02*
X007146Y016451D01*
X007048Y016550D02*
X007000Y016550D01*
X007047Y016057D02*
X011320Y016057D01*
X011257Y015959D02*
X007145Y015959D01*
X007196Y015860D02*
X011210Y015860D01*
X011210Y015762D02*
X007200Y015762D01*
X007200Y015663D02*
X011210Y015663D01*
X011234Y015565D02*
X007200Y015565D01*
X007200Y015466D02*
X011332Y015466D01*
X011431Y015368D02*
X007200Y015368D01*
X006635Y015762D02*
X005886Y015762D01*
X005886Y015860D02*
X006537Y015860D01*
X006500Y015959D02*
X005886Y015959D01*
X005886Y016057D02*
X006500Y016057D01*
X006500Y016156D02*
X005886Y016156D01*
X005886Y016254D02*
X006500Y016254D01*
X006500Y016353D02*
X005886Y016353D01*
X005831Y016451D02*
X006500Y016451D01*
X006500Y016550D02*
X005366Y016550D01*
X005366Y016648D02*
X006500Y016648D01*
X006450Y016747D02*
X005366Y016747D01*
X005404Y016845D02*
X006351Y016845D01*
X006253Y016944D02*
X005445Y016944D01*
X005445Y017042D02*
X006154Y017042D01*
X006056Y017141D02*
X005417Y017141D01*
X005350Y017239D02*
X005957Y017239D01*
X005859Y017338D02*
X005422Y017338D01*
X005457Y017436D02*
X005760Y017436D01*
X005662Y017535D02*
X005465Y017535D01*
X005442Y017633D02*
X005563Y017633D01*
X005465Y017732D02*
X005386Y017732D01*
X006172Y017732D02*
X007420Y017732D01*
X007214Y017633D02*
X006271Y017633D01*
X006369Y017535D02*
X007115Y017535D01*
X007019Y017436D02*
X006468Y017436D01*
X006566Y017338D02*
X006979Y017338D01*
X006938Y017239D02*
X006665Y017239D01*
X006763Y017141D02*
X006905Y017141D01*
X006905Y017042D02*
X006862Y017042D01*
X005626Y016451D02*
X005606Y016451D01*
X005606Y016353D02*
X005626Y016353D01*
X005626Y016254D02*
X005606Y016254D01*
X005606Y016156D02*
X005626Y016156D01*
X005626Y016057D02*
X005606Y016057D01*
X005606Y015959D02*
X005626Y015959D01*
X005626Y015860D02*
X005606Y015860D01*
X005606Y015762D02*
X005626Y015762D01*
X005626Y015663D02*
X005606Y015663D01*
X005606Y015565D02*
X005626Y015565D01*
X005626Y015466D02*
X005606Y015466D01*
X005606Y015368D02*
X005626Y015368D01*
X005380Y015368D02*
X005324Y015368D01*
X004909Y015368D02*
X004824Y015368D01*
X004866Y015466D02*
X004866Y015466D01*
X004866Y015565D02*
X004866Y015565D01*
X004866Y015663D02*
X004866Y015663D01*
X004866Y015762D02*
X004866Y015762D01*
X004866Y015860D02*
X004866Y015860D01*
X004866Y015959D02*
X004866Y015959D01*
X004866Y016057D02*
X004866Y016057D01*
X004866Y016156D02*
X004866Y016156D01*
X004866Y016254D02*
X004866Y016254D01*
X004866Y016353D02*
X004866Y016353D01*
X004866Y016451D02*
X004803Y016451D01*
X004429Y016451D02*
X004303Y016451D01*
X004366Y016388D02*
X004366Y016149D01*
X004366Y016149D01*
X004366Y016388D01*
X004366Y016353D02*
X004366Y016353D01*
X004366Y016254D02*
X004366Y016254D01*
X004366Y016156D02*
X004366Y016156D01*
X004366Y015649D02*
X004366Y015649D01*
X004366Y015565D02*
X004366Y015565D01*
X004366Y015466D02*
X004366Y015466D01*
X004324Y015368D02*
X004409Y015368D01*
X003909Y015368D02*
X003861Y015368D01*
X003905Y015269D02*
X006245Y015269D01*
X006245Y015198D02*
X006345Y015198D01*
X006345Y014783D01*
X006669Y014783D01*
X006700Y014791D01*
X006700Y014704D01*
X006587Y014590D01*
X006113Y014590D01*
X005962Y014742D01*
X005921Y014783D01*
X005921Y014783D01*
X006245Y014783D01*
X006245Y015198D01*
X006245Y015171D02*
X006345Y015171D01*
X006345Y015072D02*
X006245Y015072D01*
X006245Y014974D02*
X006345Y014974D01*
X006345Y014875D02*
X006245Y014875D01*
X006026Y014678D02*
X006674Y014678D01*
X006700Y014777D02*
X005927Y014777D01*
X005820Y014841D02*
X005800Y014850D01*
X004200Y014850D01*
X004108Y014812D01*
X003974Y014678D02*
X003905Y014678D01*
X003866Y014481D02*
X000150Y014481D01*
X000150Y014383D02*
X003866Y014383D01*
X003866Y014284D02*
X003842Y014284D01*
X003905Y014974D02*
X005791Y014974D01*
X005791Y015072D02*
X003905Y015072D01*
X003905Y015171D02*
X005791Y015171D01*
X005801Y014875D02*
X005820Y014841D01*
X006245Y015368D02*
X006345Y015368D01*
X006345Y015466D02*
X006245Y015466D01*
X006245Y015565D02*
X006345Y015565D01*
X006345Y015663D02*
X006245Y015663D01*
X005401Y016451D02*
X005366Y016451D01*
X004419Y017141D02*
X004391Y017141D01*
X004416Y017239D02*
X004486Y017239D01*
X003962Y017633D02*
X003862Y017633D01*
X003862Y017732D02*
X003962Y017732D01*
X003962Y017830D02*
X003862Y017830D01*
X003862Y017929D02*
X003962Y017929D01*
X003407Y017830D02*
X000150Y017830D01*
X000150Y017732D02*
X001920Y017732D01*
X001714Y017633D02*
X000150Y017633D01*
X000150Y017535D02*
X001615Y017535D01*
X001519Y017436D02*
X000150Y017436D01*
X000150Y017338D02*
X001479Y017338D01*
X001438Y017239D02*
X000150Y017239D01*
X000150Y017141D02*
X001405Y017141D01*
X001405Y017042D02*
X000150Y017042D01*
X000150Y016944D02*
X001405Y016944D01*
X001410Y016845D02*
X000150Y016845D01*
X000150Y016747D02*
X001451Y016747D01*
X001491Y016648D02*
X000150Y016648D01*
X000150Y016550D02*
X001548Y016550D01*
X001646Y016451D02*
X000150Y016451D01*
X000150Y016353D02*
X001757Y016353D01*
X001932Y016254D02*
X000150Y016254D01*
X000150Y016156D02*
X001932Y016156D01*
X001932Y016057D02*
X000150Y016057D01*
X000150Y015959D02*
X001932Y015959D01*
X001932Y015860D02*
X000150Y015860D01*
X000150Y015762D02*
X001932Y015762D01*
X001932Y015663D02*
X000150Y015663D01*
X000150Y015565D02*
X001932Y015565D01*
X001932Y015466D02*
X001914Y015466D01*
X001513Y015466D02*
X001413Y015466D01*
X001413Y015500D02*
X001089Y015500D01*
X001051Y015490D01*
X001017Y015470D01*
X000989Y015442D01*
X000969Y015408D01*
X000959Y015370D01*
X000959Y015085D01*
X001413Y015085D01*
X001413Y015500D01*
X001413Y015368D02*
X001513Y015368D01*
X001513Y015269D02*
X001413Y015269D01*
X001413Y015171D02*
X001513Y015171D01*
X001513Y014875D02*
X001413Y014875D01*
X001413Y014777D02*
X001513Y014777D01*
X001513Y014678D02*
X001413Y014678D01*
X001413Y014580D02*
X001513Y014580D01*
X001873Y014580D02*
X002024Y014580D01*
X001987Y014678D02*
X001962Y014678D01*
X001968Y014777D02*
X001987Y014777D01*
X001987Y014875D02*
X001968Y014875D01*
X001968Y014974D02*
X001987Y014974D01*
X002019Y014284D02*
X001948Y014284D01*
X001948Y014186D02*
X001987Y014186D01*
X001987Y013595D02*
X001948Y013595D01*
X002005Y013496D02*
X001880Y013496D01*
X002923Y014284D02*
X002999Y014284D01*
X002943Y014580D02*
X002918Y014580D01*
X000959Y015171D02*
X000150Y015171D01*
X000150Y015269D02*
X000959Y015269D01*
X000959Y015368D02*
X000150Y015368D01*
X000150Y015466D02*
X001013Y015466D01*
X002416Y017732D02*
X003407Y017732D01*
X003407Y017633D02*
X002622Y017633D01*
X000150Y019308D02*
X013778Y019308D01*
X015316Y019308D02*
X017673Y019308D01*
X017616Y019209D02*
X015386Y019209D01*
X015386Y019111D02*
X017559Y019111D01*
X017518Y019012D02*
X015386Y019012D01*
X015386Y018914D02*
X017492Y018914D01*
X017465Y018815D02*
X015386Y018815D01*
X015386Y018717D02*
X017450Y018717D01*
X017450Y018618D02*
X015386Y018618D01*
X015386Y018520D02*
X017450Y018520D01*
X017456Y018421D02*
X015386Y018421D01*
X015386Y018323D02*
X017482Y018323D01*
X017508Y018224D02*
X015346Y018224D01*
X014877Y018126D02*
X017538Y018126D01*
X017595Y018027D02*
X014877Y018027D01*
X014877Y017929D02*
X017652Y017929D01*
X017723Y017830D02*
X014877Y017830D01*
X014877Y017732D02*
X017821Y017732D01*
X017925Y017633D02*
X014877Y017633D01*
X014877Y017535D02*
X018095Y017535D01*
X018358Y017436D02*
X014877Y017436D01*
X014877Y017338D02*
X019650Y017338D01*
X019650Y017436D02*
X018942Y017436D01*
X019205Y017535D02*
X019650Y017535D01*
X019650Y017633D02*
X019375Y017633D01*
X019479Y017732D02*
X019650Y017732D01*
X019650Y017830D02*
X019577Y017830D01*
X019648Y017929D02*
X019650Y017929D01*
X019650Y017239D02*
X014877Y017239D01*
X014877Y017141D02*
X019650Y017141D01*
X019650Y017042D02*
X014877Y017042D01*
X014877Y016944D02*
X019650Y016944D01*
X017759Y019406D02*
X000407Y019406D01*
X000506Y019505D02*
X017857Y019505D01*
X018114Y013693D02*
X019650Y013693D01*
X019650Y013595D02*
X018114Y013595D01*
X016987Y008177D02*
X019650Y008177D01*
X019650Y008079D02*
X017057Y008079D01*
X017098Y007980D02*
X019650Y007980D01*
X019650Y007882D02*
X017113Y007882D01*
X017113Y007783D02*
X018429Y007783D01*
X018128Y007685D02*
X017113Y007685D01*
X017113Y007586D02*
X017958Y007586D01*
X017840Y007488D02*
X017113Y007488D01*
X017113Y007389D02*
X017742Y007389D01*
X017663Y007291D02*
X017113Y007291D01*
X017113Y007192D02*
X017606Y007192D01*
X017549Y007094D02*
X017113Y007094D01*
X017108Y006995D02*
X017514Y006995D01*
X017487Y006897D02*
X017068Y006897D01*
X017013Y006798D02*
X017461Y006798D01*
X017450Y006700D02*
X016914Y006700D01*
X018871Y007783D02*
X019650Y007783D01*
X019650Y007685D02*
X019172Y007685D01*
X019342Y007586D02*
X019650Y007586D01*
X019650Y007488D02*
X019460Y007488D01*
X019558Y007389D02*
X019650Y007389D01*
X019637Y007291D02*
X019650Y007291D01*
X007867Y011723D02*
X007834Y011723D01*
X006301Y012905D02*
X005709Y012905D01*
X005610Y012807D02*
X006203Y012807D01*
X004210Y012413D02*
X003916Y012413D01*
X003818Y012314D02*
X004110Y012314D01*
M02*
