%
M48
M72
T01C0.0197
T02C0.0236
T03C0.0276
T04C0.0320
T05C0.0394
T06C0.0440
T07C0.0866
T08C0.1500
%
T01
X4968Y7204
X4968Y7704
X4968Y8204
X4918Y17008
X4918Y17508
X4918Y18008
T02
X4950Y17500
X3050Y13000
X6750Y12400
T03
X10804Y17376
X10804Y18376
X17228Y11653
X17228Y9653
T04
X12855Y11051
X12855Y12051
X12855Y13051
X12855Y14051
X12600Y15750
X11600Y15750
X9855Y14051
X9855Y13051
X9855Y12051
X9855Y11051
X10550Y9300
X11550Y9300
X13050Y17650
X13050Y18650
T05
X17462Y16337
X16462Y14337
X18462Y14337
T06
X16613Y7475
X15613Y7475
X14613Y7475
X13613Y7475
X12613Y7475
X11613Y7475
T07
X7718Y8204
X2218Y8204
X2168Y17008
X7668Y17008
T08
X18650Y18600
X18650Y6600
M30
