%
M48
M72
T01C0.0236
T02C0.0256
T03C0.0276
T04C0.0315
T05C0.0320
T06C0.0354
T07C0.0360
T08C0.0394
T09C0.0400
T10C0.0433
T11C0.0472
T12C0.0669
T13C0.0866
T14C0.1000
T15C0.1102
%
T01
X31645Y15779
T02
X51760Y16393
X52760Y16393
X53760Y16393
X54760Y16393
X55760Y16393
X56760Y16393
X57760Y16393
X58760Y16393
X59760Y16393
X60760Y16393
X61760Y16393
X62760Y16393
X63760Y16393
X64760Y16393
X65760Y16393
X66760Y16393
X67760Y16393
X68760Y16393
X69760Y16393
X70760Y16393
X70760Y22393
X69760Y22393
X68760Y22393
X67760Y22393
X66760Y22393
X65760Y22393
X64760Y22393
X63760Y22393
X62760Y22393
X61760Y22393
X60760Y22393
X59760Y22393
X58760Y22393
X57760Y22393
X56760Y22393
X55760Y22393
X54760Y22393
X53760Y22393
X52760Y22393
X51760Y22393
X51760Y27893
X52760Y27893
X53760Y27893
X54760Y27893
X55760Y27893
X56760Y27893
X57760Y27893
X58760Y27893
X59760Y27893
X60760Y27893
X61760Y27893
X62760Y27893
X63760Y27893
X64760Y27893
X65760Y27893
X66760Y27893
X67760Y27893
X68760Y27893
X69760Y27893
X70760Y27893
X70760Y33893
X69760Y33893
X68760Y33893
X67760Y33893
X66760Y33893
X65760Y33893
X64760Y33893
X63760Y33893
X62760Y33893
X61760Y33893
X60760Y33893
X59760Y33893
X58760Y33893
X57760Y33893
X56760Y33893
X55760Y33893
X54760Y33893
X53760Y33893
X52760Y33893
X51760Y33893
X51760Y39393
X52760Y39393
X53760Y39393
X54760Y39393
X55760Y39393
X56760Y39393
X57760Y39393
X58760Y39393
X59760Y39393
X60760Y39393
X61760Y39393
X62760Y39393
X63760Y39393
X64760Y39393
X65760Y39393
X66760Y39393
X67760Y39393
X68760Y39393
X69760Y39393
X70760Y39393
X70760Y45393
X69760Y45393
X68760Y45393
X67760Y45393
X66760Y45393
X65760Y45393
X64760Y45393
X63760Y45393
X62760Y45393
X61760Y45393
X60760Y45393
X59760Y45393
X58760Y45393
X57760Y45393
X56760Y45393
X55760Y45393
X54760Y45393
X53760Y45393
X52760Y45393
X51760Y45393
T03
X29260Y40393
X29260Y39393
X28260Y42143
X28260Y43143
X19260Y40393
X19260Y39393
X18260Y42143
X18260Y43143
X9260Y40393
X9260Y39393
X8260Y42143
X8260Y43143
X10160Y30893
X11160Y30893
X11260Y28993
X10260Y28993
X11560Y18993
X11560Y17993
X11560Y16293
X11560Y15293
X22660Y15093
X22660Y16093
X24960Y16293
X24960Y17293
T04
X26897Y15779
X26897Y19007
X29260Y20070
X31622Y19007
X31622Y15779
X43260Y22143
X46760Y22143
X46760Y23393
X49760Y23643
X50760Y23143
X51010Y22393
X50510Y21893
X50510Y26643
X51010Y27143
X50510Y27643
X43360Y26643
X43260Y33643
X46760Y33643
X46760Y34893
X49760Y35143
X50760Y34643
X51010Y33893
X50510Y33393
X50510Y38143
X51010Y38643
X50510Y39143
X43360Y38143
X43260Y45143
X46760Y45143
X46760Y46393
X49760Y46643
X50760Y46143
X51010Y45393
X50510Y44893
X58760Y42643
X58760Y31143
X58760Y19643
X51010Y15643
X50510Y15143
X50510Y16143
X43360Y15143
X39660Y6293
X38660Y6293
X37660Y6293
X36660Y6293
X35660Y6293
X35660Y5093
X36660Y5093
X37660Y5093
X38660Y5093
X39660Y5093
X34660Y5093
X9110Y4983
X9110Y3983
X7860Y3993
X7860Y4993
X7860Y5993
X7860Y6993
X7860Y7993
X7860Y8993
X9110Y7983
X9110Y6983
X9110Y5983
X26060Y26993
X27060Y26993
X28060Y26993
X29060Y26993
X30060Y26993
X24310Y29143
X23310Y29143
X22310Y29143
X21310Y29143
X20310Y29143
X19310Y29143
X19310Y35143
X20310Y35143
X21310Y35143
X22310Y35143
X23310Y35143
X24310Y35143
X67217Y11947
X69580Y13010
X71942Y11947
X71942Y8719
X67217Y8719
T05
X65660Y9293
X64660Y9293
X60560Y9293
X59560Y9293
X47660Y7793
X46660Y7793
X45660Y7793
X44660Y7793
X43660Y7793
X42660Y7793
X41660Y7793
X40660Y7793
X39660Y7793
X38660Y7793
X37660Y7793
X36660Y7793
X35660Y7793
X34660Y7793
X34660Y10793
X35660Y10793
X36660Y10793
X37660Y10793
X38660Y10793
X39660Y10793
X40660Y10793
X41660Y10793
X42660Y10793
X43660Y10793
X44660Y10793
X45660Y10793
X46660Y10793
X47660Y10793
X31060Y22793
X30060Y22793
X29060Y22793
X28060Y22793
X27060Y22793
X26060Y22793
X25060Y22793
X24060Y22793
X23060Y22793
X22060Y22793
X21060Y22793
X20060Y22793
X19060Y22793
X18060Y22793
X14760Y22593
X14760Y21593
X14760Y20593
X16160Y19793
X16160Y18793
X11760Y20593
X11760Y21593
X11760Y22593
X11460Y24293
X12460Y24293
X13460Y24293
X14460Y24293
X18060Y25793
X19060Y25793
X20060Y25793
X21060Y25793
X22060Y25793
X23060Y25793
X24060Y25793
X25060Y25793
X26060Y25793
X27060Y25793
X28060Y25793
X29060Y25793
X30060Y25793
X31060Y25793
X24360Y19593
X23360Y19593
X14460Y27293
X13460Y27293
X12460Y27293
X11460Y27293
X8960Y30793
X8460Y31543
X7960Y30793
X7960Y32593
X8460Y33343
X8960Y32593
X11510Y39143
X11510Y40143
X21510Y40143
X21510Y39143
X31510Y39143
X31510Y40143
X26060Y9693
X25060Y9693
X24060Y9693
X23060Y9693
X22060Y9693
X21060Y9693
X20060Y9693
X19060Y9693
X18060Y9693
X17060Y9693
X16060Y9693
X15060Y9693
X14060Y9693
X13060Y9693
X13060Y6693
X14060Y6693
X15060Y6693
X16060Y6693
X17060Y6693
X18060Y6693
X19060Y6693
X20060Y6693
X21060Y6693
X22060Y6693
X23060Y6693
X24060Y6693
X25060Y6693
X26060Y6693
T06
X26360Y8593
X28460Y8593
X23160Y16893
X15460Y16693
X18060Y23693
X29560Y23693
X46640Y20393
X49760Y21643
X54660Y18393
X54660Y29893
X49760Y33143
X46640Y31893
X54660Y41393
X49760Y44643
X46640Y43393
X11760Y9893
X42660Y4393
T07
X23960Y18293
X21960Y18293
X20060Y18293
X18060Y18293
T08
X16560Y24943
X17560Y26943
X15560Y26943
X10260Y27293
X8260Y26293
X8260Y28293
X5510Y39409
X5510Y41378
X5260Y44159
X5260Y46128
X15260Y46128
X15260Y44159
X15510Y41378
X15510Y39409
X25510Y39409
X25510Y41378
X25260Y44159
X25260Y46128
X6260Y12993
X7260Y10993
X5260Y10993
T09
X9660Y12693
X10660Y12693
X11660Y12693
X12660Y12693
X13660Y12693
X14660Y12693
X15660Y12693
X16660Y12693
X17660Y12693
X18660Y12693
X19660Y12693
X20660Y12693
X21660Y12693
X22660Y12693
X23660Y12693
X24660Y12693
X25660Y12693
X26660Y12693
X27660Y12693
X28660Y12693
X35510Y12393
X36510Y12393
X37510Y12393
X38510Y12393
X39510Y12393
X39510Y16393
X38510Y16393
X37510Y16393
X36510Y16393
X35510Y16393
X26660Y21593
X25660Y21593
X20060Y20493
X19060Y20493
X9260Y22293
X9260Y23293
X9260Y24293
X9360Y18193
X7360Y18193
X7360Y16193
X9360Y16193
X35510Y22393
X36510Y22393
X37510Y22393
X38510Y22393
X39510Y22393
X39510Y27893
X38510Y27893
X37510Y27893
X36510Y27893
X35510Y27893
X35510Y33893
X36510Y33893
X37510Y33893
X38510Y33893
X39510Y33893
X39510Y39393
X38510Y39393
X37510Y39393
X36510Y39393
X35510Y39393
X30710Y38693
X30510Y42143
X30510Y43143
X30510Y44393
X31850Y44393
X31180Y46033
X29840Y46033
X29170Y44393
X28260Y44393
X27760Y47143
X21850Y44393
X20510Y44393
X19170Y44393
X18260Y44393
X19840Y46033
X21180Y46033
X17760Y47143
X20510Y43143
X20510Y42143
X20710Y38693
X11850Y44393
X10510Y44393
X9170Y44393
X8260Y44393
X9840Y46033
X11180Y46033
X7760Y47143
X10510Y43143
X10510Y42143
X10710Y38693
X35510Y45393
X36510Y45393
X37510Y45393
X38510Y45393
X39510Y45393
X51860Y10593
X51860Y9593
X54980Y9283
X54980Y7503
X54980Y6283
X54040Y6283
X54040Y4503
X54980Y4503
X57540Y4503
X58480Y4503
X58480Y6283
X57540Y6283
X57540Y7503
X57540Y9283
X61040Y6283
X63030Y6283
X63030Y4503
X61040Y4503
X65590Y4503
X66980Y4503
X66980Y6283
X65590Y6283
X69540Y6283
X69540Y4503
X51480Y4503
X51480Y6283
T10
X20960Y16093
X17960Y16093
X16760Y41393
X19760Y41393
X16760Y44143
X16760Y47143
X9760Y41393
X6760Y41393
X6760Y44143
X6760Y47143
X26760Y47143
X26760Y44143
X26760Y41393
X29760Y41393
T11
X5160Y18071
X5160Y16693
T12
X5360Y28375
X5360Y29934
X5360Y31493
X5360Y33052
X5360Y34611
T13
X26897Y17393
X31622Y17393
X67217Y10333
X71942Y10333
T14
X34260Y3893
T15
X4260Y3893
X4260Y12893
X4260Y14893
X32160Y14893
X34260Y15393
X32260Y12893
X32260Y3893
X48260Y3893
X48260Y12893
X34260Y23393
X34260Y26893
X34260Y34893
X32260Y36893
X34260Y38393
X34260Y46393
X4260Y36893
X72260Y38393
X72260Y34893
X72260Y26893
X72260Y23393
X72260Y15393
X72260Y12893
X72260Y3893
X72260Y46393
M30
