G75*
G70*
%OFA0B0*%
%FSLAX24Y24*%
%IPPOS*%
%LPD*%
%AMOC8*
5,1,8,0,0,1.08239X$1,22.5*
%
%ADD10C,0.1182*%
%ADD11C,0.1080*%
%ADD12C,0.0630*%
%ADD13R,0.0552X0.0316*%
%ADD14R,0.0631X0.0474*%
%ADD15R,0.0395X0.0552*%
%ADD16C,0.0820*%
%ADD17R,0.0552X0.0395*%
%ADD18R,0.0789X0.0710*%
%ADD19R,0.0710X0.0789*%
%ADD20R,0.0395X0.0434*%
%ADD21C,0.0595*%
%ADD22C,0.0595*%
%ADD23C,0.0946*%
%ADD24R,0.0820X0.0820*%
%ADD25C,0.0600*%
%ADD26OC8,0.0600*%
%ADD27R,0.0880X0.0880*%
%ADD28C,0.0880*%
%ADD29OC8,0.0640*%
%ADD30R,0.0474X0.0513*%
%ADD31R,0.0513X0.0474*%
%ADD32C,0.0730*%
%ADD33C,0.0680*%
%ADD34OC8,0.0680*%
%ADD35R,0.0730X0.0730*%
%ADD36R,0.0950X0.0320*%
%ADD37C,0.0749*%
%ADD38C,0.1084*%
%ADD39C,0.0680*%
%ADD40OC8,0.0760*%
%ADD41C,0.0674*%
%ADD42R,0.0474X0.0631*%
%ADD43C,0.0555*%
%ADD44C,0.0611*%
%ADD45R,0.0476X0.0476*%
D10*
X004260Y003893D03*
X004260Y012893D03*
X004260Y014893D03*
X032160Y014893D03*
X034260Y015393D03*
X032260Y012893D03*
X032260Y003893D03*
X048260Y003893D03*
X048260Y012893D03*
X034260Y023393D03*
X034260Y026893D03*
X034260Y034893D03*
X032260Y036893D03*
X034260Y038393D03*
X034260Y046393D03*
X004260Y036893D03*
X072260Y038393D03*
X072260Y034893D03*
X072260Y026893D03*
X072260Y023393D03*
X072260Y015393D03*
X072260Y012893D03*
X072260Y003893D03*
X072260Y046393D03*
D11*
X034260Y003893D03*
D12*
X051760Y016118D02*
X051760Y016668D01*
X052760Y016668D02*
X052760Y016118D01*
X053760Y016118D02*
X053760Y016668D01*
X054760Y016668D02*
X054760Y016118D01*
X055760Y016118D02*
X055760Y016668D01*
X056760Y016668D02*
X056760Y016118D01*
X057760Y016118D02*
X057760Y016668D01*
X058760Y016668D02*
X058760Y016118D01*
X059760Y016118D02*
X059760Y016668D01*
X060760Y016668D02*
X060760Y016118D01*
X061760Y016118D02*
X061760Y016668D01*
X062760Y016668D02*
X062760Y016118D01*
X063760Y016118D02*
X063760Y016668D01*
X064760Y016668D02*
X064760Y016118D01*
X065760Y016118D02*
X065760Y016668D01*
X066760Y016668D02*
X066760Y016118D01*
X067760Y016118D02*
X067760Y016668D01*
X068760Y016668D02*
X068760Y016118D01*
X069760Y016118D02*
X069760Y016668D01*
X070760Y016668D02*
X070760Y016118D01*
X070760Y022118D02*
X070760Y022668D01*
X069760Y022668D02*
X069760Y022118D01*
X068760Y022118D02*
X068760Y022668D01*
X067760Y022668D02*
X067760Y022118D01*
X066760Y022118D02*
X066760Y022668D01*
X065760Y022668D02*
X065760Y022118D01*
X064760Y022118D02*
X064760Y022668D01*
X063760Y022668D02*
X063760Y022118D01*
X062760Y022118D02*
X062760Y022668D01*
X061760Y022668D02*
X061760Y022118D01*
X060760Y022118D02*
X060760Y022668D01*
X059760Y022668D02*
X059760Y022118D01*
X058760Y022118D02*
X058760Y022668D01*
X057760Y022668D02*
X057760Y022118D01*
X056760Y022118D02*
X056760Y022668D01*
X055760Y022668D02*
X055760Y022118D01*
X054760Y022118D02*
X054760Y022668D01*
X053760Y022668D02*
X053760Y022118D01*
X052760Y022118D02*
X052760Y022668D01*
X051760Y022668D02*
X051760Y022118D01*
X051760Y027618D02*
X051760Y028168D01*
X052760Y028168D02*
X052760Y027618D01*
X053760Y027618D02*
X053760Y028168D01*
X054760Y028168D02*
X054760Y027618D01*
X055760Y027618D02*
X055760Y028168D01*
X056760Y028168D02*
X056760Y027618D01*
X057760Y027618D02*
X057760Y028168D01*
X058760Y028168D02*
X058760Y027618D01*
X059760Y027618D02*
X059760Y028168D01*
X060760Y028168D02*
X060760Y027618D01*
X061760Y027618D02*
X061760Y028168D01*
X062760Y028168D02*
X062760Y027618D01*
X063760Y027618D02*
X063760Y028168D01*
X064760Y028168D02*
X064760Y027618D01*
X065760Y027618D02*
X065760Y028168D01*
X066760Y028168D02*
X066760Y027618D01*
X067760Y027618D02*
X067760Y028168D01*
X068760Y028168D02*
X068760Y027618D01*
X069760Y027618D02*
X069760Y028168D01*
X070760Y028168D02*
X070760Y027618D01*
X070760Y033618D02*
X070760Y034168D01*
X069760Y034168D02*
X069760Y033618D01*
X068760Y033618D02*
X068760Y034168D01*
X067760Y034168D02*
X067760Y033618D01*
X066760Y033618D02*
X066760Y034168D01*
X065760Y034168D02*
X065760Y033618D01*
X064760Y033618D02*
X064760Y034168D01*
X063760Y034168D02*
X063760Y033618D01*
X062760Y033618D02*
X062760Y034168D01*
X061760Y034168D02*
X061760Y033618D01*
X060760Y033618D02*
X060760Y034168D01*
X059760Y034168D02*
X059760Y033618D01*
X058760Y033618D02*
X058760Y034168D01*
X057760Y034168D02*
X057760Y033618D01*
X056760Y033618D02*
X056760Y034168D01*
X055760Y034168D02*
X055760Y033618D01*
X054760Y033618D02*
X054760Y034168D01*
X053760Y034168D02*
X053760Y033618D01*
X052760Y033618D02*
X052760Y034168D01*
X051760Y034168D02*
X051760Y033618D01*
X051760Y039118D02*
X051760Y039668D01*
X052760Y039668D02*
X052760Y039118D01*
X053760Y039118D02*
X053760Y039668D01*
X054760Y039668D02*
X054760Y039118D01*
X055760Y039118D02*
X055760Y039668D01*
X056760Y039668D02*
X056760Y039118D01*
X057760Y039118D02*
X057760Y039668D01*
X058760Y039668D02*
X058760Y039118D01*
X059760Y039118D02*
X059760Y039668D01*
X060760Y039668D02*
X060760Y039118D01*
X061760Y039118D02*
X061760Y039668D01*
X062760Y039668D02*
X062760Y039118D01*
X063760Y039118D02*
X063760Y039668D01*
X064760Y039668D02*
X064760Y039118D01*
X065760Y039118D02*
X065760Y039668D01*
X066760Y039668D02*
X066760Y039118D01*
X067760Y039118D02*
X067760Y039668D01*
X068760Y039668D02*
X068760Y039118D01*
X069760Y039118D02*
X069760Y039668D01*
X070760Y039668D02*
X070760Y039118D01*
X070760Y045118D02*
X070760Y045668D01*
X069760Y045668D02*
X069760Y045118D01*
X068760Y045118D02*
X068760Y045668D01*
X067760Y045668D02*
X067760Y045118D01*
X066760Y045118D02*
X066760Y045668D01*
X065760Y045668D02*
X065760Y045118D01*
X064760Y045118D02*
X064760Y045668D01*
X063760Y045668D02*
X063760Y045118D01*
X062760Y045118D02*
X062760Y045668D01*
X061760Y045668D02*
X061760Y045118D01*
X060760Y045118D02*
X060760Y045668D01*
X059760Y045668D02*
X059760Y045118D01*
X058760Y045118D02*
X058760Y045668D01*
X057760Y045668D02*
X057760Y045118D01*
X056760Y045118D02*
X056760Y045668D01*
X055760Y045668D02*
X055760Y045118D01*
X054760Y045118D02*
X054760Y045668D01*
X053760Y045668D02*
X053760Y045118D01*
X052760Y045118D02*
X052760Y045668D01*
X051760Y045668D02*
X051760Y045118D01*
D13*
X044612Y045143D03*
X044612Y044643D03*
X044612Y044143D03*
X044612Y043643D03*
X044612Y043143D03*
X044612Y042643D03*
X044612Y041643D03*
X044612Y041143D03*
X044612Y040643D03*
X044612Y040143D03*
X044612Y039643D03*
X044612Y039143D03*
X044612Y038643D03*
X044612Y038143D03*
X042407Y038143D03*
X042407Y038643D03*
X042407Y039143D03*
X042407Y039643D03*
X042407Y040143D03*
X042407Y040643D03*
X042407Y041143D03*
X042407Y041643D03*
X042407Y042643D03*
X042407Y043143D03*
X042407Y043643D03*
X042407Y044143D03*
X042407Y044643D03*
X042407Y045143D03*
X042407Y045643D03*
X042407Y046143D03*
X044612Y046143D03*
X044612Y045643D03*
X044612Y034643D03*
X044612Y034143D03*
X044612Y033643D03*
X044612Y033143D03*
X044612Y032643D03*
X044612Y032143D03*
X044612Y031643D03*
X044612Y031143D03*
X044612Y030143D03*
X044612Y029643D03*
X044612Y029143D03*
X044612Y028643D03*
X044612Y028143D03*
X044612Y027643D03*
X044612Y027143D03*
X044612Y026643D03*
X042407Y026643D03*
X042407Y027143D03*
X042407Y027643D03*
X042407Y028143D03*
X042407Y028643D03*
X042407Y029143D03*
X042407Y029643D03*
X042407Y030143D03*
X042407Y031143D03*
X042407Y031643D03*
X042407Y032143D03*
X042407Y032643D03*
X042407Y033143D03*
X042407Y033643D03*
X042407Y034143D03*
X042407Y034643D03*
X042407Y023143D03*
X042407Y022643D03*
X042407Y022143D03*
X042407Y021643D03*
X042407Y021143D03*
X042407Y020643D03*
X042407Y020143D03*
X042407Y019643D03*
X042407Y018643D03*
X042407Y018143D03*
X042407Y017643D03*
X042407Y017143D03*
X042407Y016643D03*
X042407Y016143D03*
X042407Y015643D03*
X042407Y015143D03*
X044612Y015143D03*
X044612Y015643D03*
X044612Y016143D03*
X044612Y016643D03*
X044612Y017143D03*
X044612Y017643D03*
X044612Y018143D03*
X044612Y018643D03*
X044612Y019643D03*
X044612Y020143D03*
X044612Y020643D03*
X044612Y021143D03*
X044612Y021643D03*
X044612Y022143D03*
X044612Y022643D03*
X044612Y023143D03*
D14*
X047701Y022217D03*
X047701Y021469D03*
X048568Y021843D03*
X048876Y021017D03*
X049743Y020643D03*
X048876Y020269D03*
X048193Y019643D03*
X047326Y019269D03*
X047326Y020017D03*
X048926Y022519D03*
X048926Y023267D03*
X049793Y022893D03*
X047326Y030769D03*
X048193Y031143D03*
X048876Y031769D03*
X049743Y032143D03*
X048876Y032517D03*
X048568Y033343D03*
X048926Y034019D03*
X048926Y034767D03*
X049793Y034393D03*
X047701Y033717D03*
X047701Y032969D03*
X047326Y031517D03*
X047326Y042269D03*
X048193Y042643D03*
X048876Y043269D03*
X049743Y043643D03*
X048876Y044017D03*
X048568Y044843D03*
X048926Y045519D03*
X049793Y045893D03*
X048926Y046267D03*
X047701Y045217D03*
X047701Y044469D03*
X047326Y043017D03*
D15*
X046614Y042693D03*
X045905Y042693D03*
X047405Y041643D03*
X048114Y041643D03*
X048114Y040643D03*
X047405Y040643D03*
X046864Y040143D03*
X046155Y040143D03*
X046155Y039143D03*
X046864Y039143D03*
X047405Y038643D03*
X048114Y038643D03*
X048114Y039643D03*
X047405Y039643D03*
X046864Y038143D03*
X046155Y038143D03*
X046155Y041143D03*
X046864Y041143D03*
X047305Y043843D03*
X048014Y043843D03*
X046614Y044493D03*
X045905Y044493D03*
X047305Y045843D03*
X048014Y045843D03*
X048014Y034343D03*
X047305Y034343D03*
X046614Y032993D03*
X045905Y032993D03*
X047305Y032343D03*
X048014Y032343D03*
X046614Y031193D03*
X045905Y031193D03*
X047405Y030143D03*
X048114Y030143D03*
X048114Y029143D03*
X047405Y029143D03*
X046864Y028643D03*
X046155Y028643D03*
X046155Y027643D03*
X046864Y027643D03*
X047405Y027143D03*
X048114Y027143D03*
X048114Y028143D03*
X047405Y028143D03*
X046864Y026643D03*
X046155Y026643D03*
X046155Y029643D03*
X046864Y029643D03*
X047305Y022843D03*
X048014Y022843D03*
X046614Y021493D03*
X045905Y021493D03*
X047305Y020843D03*
X048014Y020843D03*
X046614Y019693D03*
X045905Y019693D03*
X047405Y018643D03*
X048114Y018643D03*
X048114Y017643D03*
X047405Y017643D03*
X046864Y017143D03*
X046155Y017143D03*
X046155Y016143D03*
X046864Y016143D03*
X047405Y015643D03*
X048114Y015643D03*
X048114Y016643D03*
X047405Y016643D03*
X046864Y015143D03*
X046155Y015143D03*
X046155Y018143D03*
X046864Y018143D03*
X058505Y010193D03*
X059214Y010193D03*
X062905Y009293D03*
X063614Y009293D03*
X051214Y009193D03*
X050505Y009193D03*
X050414Y007193D03*
X049705Y007193D03*
X049705Y006393D03*
X049705Y005693D03*
X050414Y005693D03*
X050414Y006393D03*
X050414Y004893D03*
X049705Y004893D03*
X049705Y004093D03*
X050414Y004093D03*
X043114Y006693D03*
X042405Y006693D03*
X012514Y010793D03*
X011805Y010793D03*
X009414Y008993D03*
X008705Y008993D03*
D16*
X007260Y010993D03*
X005260Y010993D03*
X006260Y012993D03*
X009660Y012693D03*
X010660Y012693D03*
X011660Y012693D03*
X012660Y012693D03*
X013660Y012693D03*
X014660Y012693D03*
X015660Y012693D03*
X016660Y012693D03*
X017660Y012693D03*
X018660Y012693D03*
X019660Y012693D03*
X020660Y012693D03*
X021660Y012693D03*
X022660Y012693D03*
X023660Y012693D03*
X024660Y012693D03*
X025660Y012693D03*
X026660Y012693D03*
X027660Y012693D03*
X035510Y012393D03*
X036510Y012393D03*
X037510Y012393D03*
X038510Y012393D03*
X039510Y012393D03*
X039510Y016393D03*
X038510Y016393D03*
X037510Y016393D03*
X036510Y016393D03*
X035510Y016393D03*
X026660Y021593D03*
X025660Y021593D03*
X024360Y019593D03*
X023360Y019593D03*
X020060Y020493D03*
X019060Y020493D03*
X016160Y019793D03*
X016160Y018793D03*
X016560Y024943D03*
X017560Y026943D03*
X015560Y026943D03*
X010260Y027293D03*
X008260Y026293D03*
X008260Y028293D03*
X010710Y038693D03*
X010510Y042143D03*
X010510Y043143D03*
X008260Y044393D03*
X007760Y047143D03*
X017760Y047143D03*
X018260Y044393D03*
X020510Y043143D03*
X020510Y042143D03*
X020710Y038693D03*
X028260Y044393D03*
X030510Y043143D03*
X030510Y042143D03*
X030710Y038693D03*
X035510Y039393D03*
X036510Y039393D03*
X037510Y039393D03*
X038510Y039393D03*
X039510Y039393D03*
X039510Y033893D03*
X038510Y033893D03*
X037510Y033893D03*
X036510Y033893D03*
X035510Y033893D03*
X035510Y027893D03*
X036510Y027893D03*
X037510Y027893D03*
X038510Y027893D03*
X039510Y027893D03*
X039510Y022393D03*
X038510Y022393D03*
X037510Y022393D03*
X036510Y022393D03*
X035510Y022393D03*
X051860Y010593D03*
X051860Y009593D03*
X054980Y009283D03*
X054980Y007503D03*
X054980Y006283D03*
X054040Y006283D03*
X054040Y004503D03*
X054980Y004503D03*
X057540Y004503D03*
X058480Y004503D03*
X058480Y006283D03*
X057540Y006283D03*
X057540Y007503D03*
X057540Y009283D03*
X059560Y009293D03*
X060560Y009293D03*
X061040Y006283D03*
X063030Y006283D03*
X063030Y004503D03*
X061040Y004503D03*
X065590Y004503D03*
X066980Y004503D03*
X066980Y006283D03*
X065590Y006283D03*
X069540Y006283D03*
X069540Y004503D03*
X065660Y009293D03*
X064660Y009293D03*
X051480Y006283D03*
X051480Y004503D03*
X039510Y045393D03*
X038510Y045393D03*
X037510Y045393D03*
X036510Y045393D03*
X035510Y045393D03*
X027760Y047143D03*
D17*
X040560Y046748D03*
X040560Y046039D03*
X045760Y045789D03*
X045760Y046498D03*
X045760Y034998D03*
X045760Y034289D03*
X040560Y034539D03*
X040560Y035248D03*
X040560Y023748D03*
X040560Y023039D03*
X045760Y022789D03*
X045760Y023498D03*
X044660Y012448D03*
X043660Y012448D03*
X042660Y012448D03*
X042660Y011739D03*
X043660Y011739D03*
X044660Y011739D03*
X034660Y006748D03*
X034660Y006039D03*
D18*
X041410Y017242D03*
X041410Y018344D03*
X041460Y021842D03*
X041460Y022944D03*
X041410Y028742D03*
X041410Y029844D03*
X041460Y033342D03*
X041460Y034444D03*
X041410Y040242D03*
X041410Y041344D03*
X041460Y044842D03*
X041460Y045944D03*
X032510Y040944D03*
X032510Y039842D03*
X022510Y039842D03*
X022510Y040944D03*
X012510Y040944D03*
X012510Y039842D03*
X013460Y017544D03*
X013460Y016442D03*
D19*
X018908Y015293D03*
X020011Y015293D03*
X027708Y011793D03*
X028811Y011793D03*
X019311Y005393D03*
X018208Y005393D03*
X040608Y006693D03*
X041711Y006693D03*
X041711Y011893D03*
X040608Y011893D03*
X025111Y026893D03*
X024008Y026893D03*
X021561Y047143D03*
X020458Y047143D03*
X011561Y047143D03*
X010458Y047143D03*
X030458Y047143D03*
X031561Y047143D03*
D20*
X010560Y011626D03*
X010934Y010800D03*
X010185Y010800D03*
D21*
X008117Y008993D02*
X007602Y008993D01*
X007602Y007993D02*
X008117Y007993D01*
X008852Y007983D02*
X009367Y007983D01*
X009367Y006983D02*
X008852Y006983D01*
X008117Y006993D02*
X007602Y006993D01*
X007602Y005993D02*
X008117Y005993D01*
X008852Y005983D02*
X009367Y005983D01*
X009367Y004983D02*
X008852Y004983D01*
X008117Y004993D02*
X007602Y004993D01*
X007602Y003993D02*
X008117Y003993D01*
X008852Y003983D02*
X009367Y003983D01*
X034660Y004836D02*
X034660Y005351D01*
X035660Y005351D02*
X035660Y004836D01*
X036660Y004836D02*
X036660Y005351D01*
X036660Y006036D02*
X036660Y006551D01*
X035660Y006551D02*
X035660Y006036D01*
X037660Y006036D02*
X037660Y006551D01*
X038660Y006551D02*
X038660Y006036D01*
X038660Y005351D02*
X038660Y004836D01*
X037660Y004836D02*
X037660Y005351D01*
X039660Y005351D02*
X039660Y004836D01*
X039660Y006036D02*
X039660Y006551D01*
X030060Y026736D02*
X030060Y027251D01*
X029060Y027251D02*
X029060Y026736D01*
X028060Y026736D02*
X028060Y027251D01*
X027060Y027251D02*
X027060Y026736D01*
X026060Y026736D02*
X026060Y027251D01*
X024310Y028886D02*
X024310Y029401D01*
X023310Y029401D02*
X023310Y028886D01*
X022310Y028886D02*
X022310Y029401D01*
X021310Y029401D02*
X021310Y028886D01*
X020310Y028886D02*
X020310Y029401D01*
X019310Y029401D02*
X019310Y028886D01*
X019310Y034886D02*
X019310Y035401D01*
X020310Y035401D02*
X020310Y034886D01*
X021310Y034886D02*
X021310Y035401D01*
X022310Y035401D02*
X022310Y034886D01*
X023310Y034886D02*
X023310Y035401D01*
X024310Y035401D02*
X024310Y034886D01*
D22*
X029260Y020070D03*
X026897Y019007D03*
X026897Y015779D03*
X031622Y015779D03*
X031622Y019007D03*
X067217Y011947D03*
X069580Y013010D03*
X071942Y011947D03*
X071942Y008719D03*
X067217Y008719D03*
D23*
X067217Y010333D03*
X071942Y010333D03*
X031622Y017393D03*
X026897Y017393D03*
D24*
X028660Y012693D03*
D25*
X026060Y009953D02*
X026060Y009433D01*
X025060Y009433D02*
X025060Y009953D01*
X024060Y009953D02*
X024060Y009433D01*
X023060Y009433D02*
X023060Y009953D01*
X022060Y009953D02*
X022060Y009433D01*
X021060Y009433D02*
X021060Y009953D01*
X020060Y009953D02*
X020060Y009433D01*
X019060Y009433D02*
X019060Y009953D01*
X018060Y009953D02*
X018060Y009433D01*
X017060Y009433D02*
X017060Y009953D01*
X016060Y009953D02*
X016060Y009433D01*
X015060Y009433D02*
X015060Y009953D01*
X014060Y009953D02*
X014060Y009433D01*
X013060Y009433D02*
X013060Y009953D01*
X013060Y006953D02*
X013060Y006433D01*
X014060Y006433D02*
X014060Y006953D01*
X015060Y006953D02*
X015060Y006433D01*
X016060Y006433D02*
X016060Y006953D01*
X017060Y006953D02*
X017060Y006433D01*
X018060Y006433D02*
X018060Y006953D01*
X019060Y006953D02*
X019060Y006433D01*
X020060Y006433D02*
X020060Y006953D01*
X021060Y006953D02*
X021060Y006433D01*
X022060Y006433D02*
X022060Y006953D01*
X023060Y006953D02*
X023060Y006433D01*
X024060Y006433D02*
X024060Y006953D01*
X025060Y006953D02*
X025060Y006433D01*
X026060Y006433D02*
X026060Y006953D01*
X034660Y007533D02*
X034660Y008053D01*
X035660Y008053D02*
X035660Y007533D01*
X036660Y007533D02*
X036660Y008053D01*
X037660Y008053D02*
X037660Y007533D01*
X038660Y007533D02*
X038660Y008053D01*
X039660Y008053D02*
X039660Y007533D01*
X040660Y007533D02*
X040660Y008053D01*
X041660Y008053D02*
X041660Y007533D01*
X042660Y007533D02*
X042660Y008053D01*
X043660Y008053D02*
X043660Y007533D01*
X044660Y007533D02*
X044660Y008053D01*
X045660Y008053D02*
X045660Y007533D01*
X046660Y007533D02*
X046660Y008053D01*
X047660Y008053D02*
X047660Y007533D01*
X047660Y010533D02*
X047660Y011053D01*
X046660Y011053D02*
X046660Y010533D01*
X045660Y010533D02*
X045660Y011053D01*
X044660Y011053D02*
X044660Y010533D01*
X043660Y010533D02*
X043660Y011053D01*
X042660Y011053D02*
X042660Y010533D01*
X041660Y010533D02*
X041660Y011053D01*
X040660Y011053D02*
X040660Y010533D01*
X039660Y010533D02*
X039660Y011053D01*
X038660Y011053D02*
X038660Y010533D01*
X037660Y010533D02*
X037660Y011053D01*
X036660Y011053D02*
X036660Y010533D01*
X035660Y010533D02*
X035660Y011053D01*
X034660Y011053D02*
X034660Y010533D01*
X031060Y022533D02*
X031060Y023053D01*
X030060Y023053D02*
X030060Y022533D01*
X029060Y022533D02*
X029060Y023053D01*
X028060Y023053D02*
X028060Y022533D01*
X027060Y022533D02*
X027060Y023053D01*
X026060Y023053D02*
X026060Y022533D01*
X025060Y022533D02*
X025060Y023053D01*
X024060Y023053D02*
X024060Y022533D01*
X023060Y022533D02*
X023060Y023053D01*
X022060Y023053D02*
X022060Y022533D01*
X021060Y022533D02*
X021060Y023053D01*
X020060Y023053D02*
X020060Y022533D01*
X019060Y022533D02*
X019060Y023053D01*
X018060Y023053D02*
X018060Y022533D01*
X015280Y022593D02*
X014760Y022593D01*
X014760Y021593D02*
X015280Y021593D01*
X015280Y020593D02*
X014760Y020593D01*
X011760Y020593D02*
X011240Y020593D01*
X011240Y021593D02*
X011760Y021593D01*
X011760Y022593D02*
X011240Y022593D01*
X018060Y025533D02*
X018060Y026053D01*
X019060Y026053D02*
X019060Y025533D01*
X020060Y025533D02*
X020060Y026053D01*
X021060Y026053D02*
X021060Y025533D01*
X022060Y025533D02*
X022060Y026053D01*
X023060Y026053D02*
X023060Y025533D01*
X024060Y025533D02*
X024060Y026053D01*
X025060Y026053D02*
X025060Y025533D01*
X026060Y025533D02*
X026060Y026053D01*
X027060Y026053D02*
X027060Y025533D01*
X028060Y025533D02*
X028060Y026053D01*
X029060Y026053D02*
X029060Y025533D01*
X030060Y025533D02*
X030060Y026053D01*
X031060Y026053D02*
X031060Y025533D01*
D26*
X031510Y039143D03*
X031510Y040143D03*
X021510Y040143D03*
X021510Y039143D03*
X011510Y039143D03*
X011510Y040143D03*
X008460Y033343D03*
X008960Y032593D03*
X007960Y032593D03*
X008460Y031543D03*
X008960Y030793D03*
X007960Y030793D03*
D27*
X005160Y016693D03*
D28*
X005160Y018071D03*
D29*
X018060Y018293D03*
X020060Y018293D03*
X021960Y018293D03*
X023960Y018293D03*
D30*
X023960Y017228D03*
X023960Y016559D03*
X023960Y015828D03*
X023960Y015159D03*
X025860Y016459D03*
X025860Y017128D03*
X017260Y022759D03*
X017260Y023428D03*
X016160Y021528D03*
X016160Y020859D03*
X014760Y019728D03*
X014760Y019059D03*
X010360Y020659D03*
X010360Y021328D03*
X021160Y023659D03*
X021160Y024328D03*
X022160Y024328D03*
X022160Y023659D03*
X023160Y023659D03*
X023160Y024328D03*
X028060Y024428D03*
X028060Y023759D03*
X023210Y033509D03*
X023210Y034178D03*
X022210Y034178D03*
X022210Y033509D03*
X021210Y033459D03*
X021210Y034128D03*
X020210Y034128D03*
X020210Y033459D03*
X019210Y033459D03*
X019210Y034128D03*
X010160Y032628D03*
X010160Y031959D03*
D31*
X010425Y029693D03*
X011094Y029693D03*
X009694Y029693D03*
X009025Y029693D03*
X009525Y026393D03*
X010194Y026393D03*
X011525Y026193D03*
X012194Y026193D03*
X013025Y026293D03*
X013694Y026293D03*
X020325Y028243D03*
X020994Y028243D03*
X025125Y029093D03*
X025794Y029093D03*
X027425Y021593D03*
X028094Y021593D03*
D32*
X024960Y016293D03*
X022660Y015093D03*
X011560Y015293D03*
X011560Y017993D03*
X011260Y028993D03*
X010260Y028993D03*
X010160Y030893D03*
X011160Y030893D03*
X009260Y040393D03*
X008260Y042143D03*
X018260Y042143D03*
X019260Y040393D03*
X028260Y042143D03*
X029260Y040393D03*
D33*
X007360Y018193D03*
D34*
X009360Y018193D03*
X009360Y016193D03*
X007360Y016193D03*
D35*
X011560Y016293D03*
X011560Y018993D03*
X022660Y016093D03*
X024960Y017293D03*
X029260Y039393D03*
X028260Y043143D03*
X019260Y039393D03*
X018260Y043143D03*
X009260Y039393D03*
X008260Y043143D03*
D36*
X014530Y017243D03*
X014530Y016743D03*
X014530Y016243D03*
X014530Y015743D03*
X016590Y015743D03*
X016590Y016243D03*
X016590Y016743D03*
X016590Y017243D03*
D37*
X017960Y016093D03*
X020960Y016093D03*
X019760Y041393D03*
X016760Y041393D03*
X016760Y044143D03*
X016760Y047143D03*
X009760Y041393D03*
X006760Y041393D03*
X006760Y044143D03*
X006760Y047143D03*
X026760Y047143D03*
X026760Y044143D03*
X026760Y041393D03*
X029760Y041393D03*
D38*
X005861Y034611D02*
X004858Y034611D01*
X004858Y033052D02*
X005861Y033052D01*
X005861Y031493D02*
X004858Y031493D01*
X004858Y029934D02*
X005861Y029934D01*
X005861Y028375D02*
X004858Y028375D01*
D39*
X008960Y024293D02*
X009560Y024293D01*
X009560Y023293D02*
X008960Y023293D01*
X008960Y022293D02*
X009560Y022293D01*
X009170Y044093D02*
X009170Y044693D01*
X009840Y045733D02*
X009840Y046333D01*
X011180Y046333D02*
X011180Y045733D01*
X011850Y044693D02*
X011850Y044093D01*
X010510Y044093D02*
X010510Y044693D01*
X019170Y044693D02*
X019170Y044093D01*
X020510Y044093D02*
X020510Y044693D01*
X021180Y045733D02*
X021180Y046333D01*
X019840Y046333D02*
X019840Y045733D01*
X021850Y044693D02*
X021850Y044093D01*
X029170Y044093D02*
X029170Y044693D01*
X029840Y045733D02*
X029840Y046333D01*
X031180Y046333D02*
X031180Y045733D01*
X031850Y044693D02*
X031850Y044093D01*
X030510Y044093D02*
X030510Y044693D01*
D40*
X014460Y027293D03*
X013460Y027293D03*
X012460Y027293D03*
X011460Y027293D03*
X011460Y024293D03*
X012460Y024293D03*
X013460Y024293D03*
X014460Y024293D03*
D41*
X015213Y039409D02*
X015806Y039409D01*
X015806Y041378D02*
X015213Y041378D01*
X014963Y044159D02*
X015556Y044159D01*
X015556Y046128D02*
X014963Y046128D01*
X005556Y046128D02*
X004963Y046128D01*
X004963Y044159D02*
X005556Y044159D01*
X005806Y041378D02*
X005213Y041378D01*
X005213Y039409D02*
X005806Y039409D01*
X024963Y044159D02*
X025556Y044159D01*
X025556Y046128D02*
X024963Y046128D01*
X025213Y041378D02*
X025806Y041378D01*
X025806Y039409D02*
X025213Y039409D01*
D42*
X022384Y042210D03*
X021635Y042210D03*
X022010Y043076D03*
X012384Y042210D03*
X011635Y042210D03*
X012010Y043076D03*
X031635Y042210D03*
X032384Y042210D03*
X032010Y043076D03*
D43*
X043260Y045143D03*
X046760Y045143D03*
X046760Y046393D03*
X049760Y046643D03*
X050760Y046143D03*
X051010Y045393D03*
X050510Y044893D03*
X050510Y039143D03*
X051010Y038643D03*
X050510Y038143D03*
X049760Y035143D03*
X050760Y034643D03*
X051010Y033893D03*
X050510Y033393D03*
X046760Y033643D03*
X046760Y034893D03*
X043260Y033643D03*
X043360Y038143D03*
X050510Y027643D03*
X051010Y027143D03*
X050510Y026643D03*
X049760Y023643D03*
X050760Y023143D03*
X051010Y022393D03*
X050510Y021893D03*
X046760Y022143D03*
X046760Y023393D03*
X043260Y022143D03*
X043360Y026643D03*
X050510Y016143D03*
X051010Y015643D03*
X050510Y015143D03*
X043360Y015143D03*
X058760Y019643D03*
X058760Y031143D03*
X058760Y042643D03*
D44*
X054660Y041393D03*
X049760Y044643D03*
X046640Y043393D03*
X049760Y033143D03*
X046640Y031893D03*
X054660Y029893D03*
X049760Y021643D03*
X046640Y020393D03*
X054660Y018393D03*
X042660Y004393D03*
X028460Y008593D03*
X026360Y008593D03*
X023160Y016893D03*
X015460Y016693D03*
X018060Y023693D03*
X029560Y023693D03*
X011760Y009893D03*
D45*
X031645Y015779D03*
M02*
