M48
;DRILL file {Pcbnew (2013-05-16 BZR 4016)-stable} date 5/8/2013 8:46:59 PM
;FORMAT={-:-/ absolute / inch / decimal}
FMAT,2
INCH,TZ
T1C0.030
T2C0.032
T3C0.040
T4C0.045
%
G90
G05
M72
T1
X1.95Y2.3
X2.05Y2.3
X2.15Y2.3
X2.25Y2.3
X2.35Y2.3
X2.45Y2.3
X2.55Y2.3
X2.65Y2.3
X2.75Y2.3
X2.85Y2.3
X2.95Y2.3
X3.05Y2.3
X3.15Y2.3
X3.25Y2.3
X3.35Y2.3
X3.45Y2.3
X3.55Y2.3
X3.65Y2.3
X3.75Y2.3
X3.85Y2.3
T2
X2.25Y2.55
X2.25Y2.75
X2.35Y2.65
X6.7Y2.4
X6.7Y3.
X6.7Y3.5
X6.7Y4.1
X6.7Y4.595
X6.7Y5.195
X6.8Y2.4
X6.8Y3.
X6.8Y3.5
X6.8Y4.1
X6.8Y4.595
X6.8Y5.195
X6.9Y2.4
X6.9Y3.
X6.9Y3.5
X6.9Y4.1
X6.9Y4.595
X6.9Y5.195
X7.Y2.4
X7.Y3.
X7.Y3.5
X7.Y4.1
X7.Y4.595
X7.Y5.195
X7.1Y2.4
X7.1Y3.
X7.1Y3.5
X7.1Y4.1
X7.1Y4.595
X7.1Y5.195
X7.2Y2.4
X7.2Y3.
X7.2Y3.5
X7.2Y4.1
X7.2Y4.6
X7.2Y5.2
X7.3Y2.4
X7.3Y3.
X7.3Y3.5
X7.3Y4.1
X7.3Y4.6
X7.3Y5.2
X7.4Y2.4
X7.4Y3.
X7.4Y3.5
X7.4Y4.1
X7.4Y4.6
X7.4Y5.2
X7.5Y2.4
X7.5Y3.
X7.5Y3.5
X7.5Y4.1
X7.5Y4.6
X7.5Y5.2
X7.6Y2.4
X7.6Y3.
X7.6Y3.5
X7.6Y4.1
X7.6Y4.6
X7.6Y5.2
X7.7Y2.4
X7.7Y3.
X7.7Y3.5
X7.7Y4.1
X7.7Y4.6
X7.7Y5.2
X7.8Y2.4
X7.8Y3.
X7.8Y3.5
X7.8Y4.1
X7.8Y4.6
X7.8Y5.2
X7.9Y2.4
X7.9Y3.
X7.9Y3.5
X7.9Y4.1
X7.9Y4.6
X7.9Y5.2
X8.Y2.4
X8.Y3.
X8.Y3.5
X8.Y4.1
X8.Y4.6
X8.Y5.2
X8.1Y2.4
X8.1Y3.
X8.1Y3.5
X8.1Y4.1
X8.1Y4.6
X8.1Y5.2
X8.2Y2.4
X8.2Y3.
X8.2Y3.5
X8.2Y4.1
X8.2Y4.6
X8.2Y5.2
X8.3Y2.4
X8.3Y3.
X8.3Y3.5
X8.3Y4.1
X8.3Y4.6
X8.3Y5.2
X8.4Y2.4
X8.4Y3.
X8.4Y3.5
X8.4Y4.1
X8.4Y4.6
X8.4Y5.2
X8.5Y2.4
X8.5Y3.
X8.5Y3.5
X8.5Y4.1
X8.5Y4.6
X8.5Y5.2
X8.6Y2.4
X8.6Y3.
X8.6Y3.5
X8.6Y4.1
X8.6Y4.6
X8.6Y5.2
X8.7Y2.4
X8.7Y3.
X8.7Y3.5
X8.7Y4.1
X8.7Y4.6
X8.7Y5.2
X8.8Y2.4
X8.8Y3.
X8.8Y3.5
X8.8Y4.1
X8.8Y4.6
X8.8Y5.2
X8.9Y2.4
X8.9Y3.
X8.9Y3.5
X8.9Y4.1
X8.9Y4.6
X8.9Y5.2
X9.Y2.4
X9.Y3.
X9.Y3.5
X9.Y4.1
X9.Y4.6
X9.Y5.2
X9.1Y2.4
X9.1Y3.
X9.1Y3.5
X9.1Y4.1
X9.1Y4.6
X9.1Y5.2
X9.2Y2.4
X9.2Y3.
X9.2Y3.5
X9.2Y4.1
X9.2Y4.6
X9.2Y5.2
X9.3Y2.4
X9.3Y3.
X9.3Y3.5
X9.3Y4.1
X9.3Y4.6
X9.3Y5.2
X9.4Y2.4
X9.4Y3.
X9.4Y3.5
X9.4Y4.1
X9.4Y4.6
X9.4Y5.2
X9.5Y2.4
X9.5Y3.
X9.5Y3.5
X9.5Y4.1
X9.5Y4.6
X9.5Y5.2
X9.6Y2.4
X9.6Y3.
X9.6Y3.5
X9.6Y4.1
X9.6Y4.6
X9.6Y5.2
T3
X1.7Y2.3
X1.7Y2.4
X1.7Y2.5
X1.7Y2.6
X1.7Y2.7
X1.7Y2.8
X5.05Y2.25
X5.05Y2.35
X5.05Y3.
X5.05Y3.1
X5.05Y3.35
X5.05Y3.45
X5.05Y4.1
X5.05Y4.2
X5.05Y4.45
X5.05Y4.55
X5.05Y5.2
X5.05Y5.3
X5.15Y2.25
X5.15Y2.35
X5.15Y3.
X5.15Y3.1
X5.15Y3.35
X5.15Y3.45
X5.15Y4.1
X5.15Y4.2
X5.15Y4.45
X5.15Y4.55
X5.15Y5.2
X5.15Y5.3
X5.25Y2.25
X5.25Y2.35
X5.25Y3.
X5.25Y3.1
X5.25Y3.35
X5.25Y3.45
X5.25Y4.1
X5.25Y4.2
X5.25Y4.45
X5.25Y4.55
X5.25Y5.2
X5.25Y5.3
T4
X2.6Y2.62
X2.8Y2.69
X2.99Y2.87
X3.09Y2.69
X3.17Y2.63
X3.26Y2.5
X3.35Y2.47
X3.42Y2.42
X3.46Y2.61
X3.61Y2.87
X3.7Y2.69
X4.47Y2.33
X5.28Y2.62
X5.28Y3.72
X5.28Y4.82
X5.42Y2.91
X5.42Y4.01
X5.42Y5.11
X5.47Y2.64
X5.47Y2.73
X5.47Y3.74
X5.47Y3.83
X5.47Y4.84
X5.47Y4.93
X5.87Y2.83
X5.87Y3.93
X5.87Y5.03
X5.95Y2.34
X5.95Y3.44
X5.95Y4.54
X5.97Y3.
X5.97Y4.1
X5.98Y2.41
X5.98Y3.51
X5.98Y4.61
X6.13Y2.41
X6.13Y3.51
X6.13Y4.61
X6.2675Y2.375
X6.2675Y3.475
X6.2675Y4.575
X6.63Y2.32
X6.63Y3.42
X6.63Y4.52
X6.685Y2.92
X6.685Y4.02
X6.685Y5.12
X6.7225Y2.27
X6.7225Y3.37
X6.7225Y4.47
X6.8Y2.825
X6.8Y3.925
X6.8Y5.025
X7.3Y2.825
X7.3Y3.925
X7.3Y5.025
X7.42Y2.22
X7.42Y3.32
X7.42Y4.42
X7.8Y2.825
X7.8Y3.925
X7.8Y5.025
X8.3Y2.825
X8.3Y3.925
X8.3Y5.025
X8.775Y2.825
X8.775Y3.925
X8.775Y5.025
X9.3Y2.825
X9.3Y3.925
X9.3Y5.025
T0
M30
